<svg id="dino10" enable-background="new 0 0 300 300" height="512" viewBox="0 0 300 300" width="512" xmlns="http://www.w3.org/2000/svg"><circle cx="135.992" cy="133.537" fill="#edebdc" r="90"/><path d="m189.162 144.688c-.677 0-1.326.103-1.977.199 1.228-2.031 1.977-4.388 1.977-6.935 0-7.441-6.031-13.472-13.472-13.472-2.547 0-4.904.748-6.935 1.977.097-.65.199-1.3.199-1.977 0-7.441-6.031-13.472-13.472-13.472-2.547 0-4.904.748-6.935 1.977.097-.65.199-1.3.199-1.977 0-7.441-6.031-13.472-13.472-13.472-7.44 0-13.472 6.031-13.472 13.472 0 .677.103 1.326.199 1.977-2.031-1.228-4.388-1.977-6.935-1.977-7.44 0-13.472 6.031-13.472 13.472-7.44 0-13.472 6.031-13.472 13.472 0 7.44 6.032 13.472 13.472 13.472 6.736 0 80.126 20.208 87.566 20.208 7.441 0 13.472-6.032 13.472-13.472.002-7.441-6.03-13.472-13.47-13.472z" fill="#ffce56"/><path d="m189.16 175.631c-4.016 0-20.25-4.004-46.508-10.598-16.965-4.26-38.074-9.561-41.062-9.609-9.629 0-17.465-7.838-17.465-17.471 0-8.393 5.945-15.422 13.848-17.096 1.672-7.9 8.703-13.848 17.094-13.848 1.051 0 2.098.1 3.133.295 1.703-7.861 8.711-13.768 17.074-13.768s15.371 5.906 17.078 13.768c1.031-.195 2.078-.295 3.129-.295 8.363 0 15.371 5.906 17.078 13.766 1.035-.195 2.082-.295 3.133-.295 9.633 0 17.469 7.838 17.469 17.473 0 1.049-.098 2.098-.293 3.129 7.859 1.705 13.766 8.715 13.766 17.078-.001 9.633-7.841 17.471-17.474 17.471zm-74.093-60.621c-5.223 0-9.473 4.248-9.473 9.471 0 2.209-1.789 4-4 4-5.223 0-9.469 4.25-9.469 9.473s4.246 9.471 9.469 9.471c3.406 0 16.344 3.154 43.008 9.85 17.406 4.371 41.242 10.357 44.559 10.357 5.223 0 9.473-4.248 9.473-9.471s-4.25-9.473-9.473-9.473c-.43 0-.84.074-1.25.135-1.562.232-3.133-.443-3.988-1.732-.855-1.291-.961-2.951-.16-4.275.93-1.531 1.398-3.166 1.398-4.861 0-5.223-4.246-9.473-9.469-9.473-1.695 0-3.332.471-4.867 1.398-1.324.805-2.996.768-4.289-.094-1.289-.859-1.969-2.389-1.738-3.922.078-.506.156-.934.156-1.383 0-5.223-4.25-9.471-9.473-9.471-1.691 0-3.328.471-4.863 1.398-1.328.805-2.996.766-4.289-.094-1.289-.859-1.969-2.389-1.738-3.922.078-.502.156-.934.156-1.383 0-5.223-4.25-9.473-9.473-9.473s-9.469 4.25-9.469 9.473c0 .449.078.881.145 1.312.23 1.533-.441 3.098-1.73 3.957-1.289.863-2.953.934-4.285.129-1.536-.927-3.173-1.397-4.868-1.397z" fill="#4c241d"/><path d="m31.021 171.936c1.912 3.823 6.093 5.952 10.309 5.25l33.322-5.554s33.679 47.151 107.774 13.472c0 0 53.887 13.472 87.566-13.472 0 0-60.623 0-101.038-20.208s-60.623-13.472-87.566 0l-3.842-2.561c-9.747-6.498-22.578-5.941-31.725 1.377l-12.174 9.739c-3.585 2.868-4.679 7.85-2.626 11.957z" fill="#a9ba5a"/><path d="m132.512 201.137c-34.48.002-53.953-18.9-59.473-25.182l-31.055 5.176c-5.965.996-11.824-1.977-14.543-7.404 0-.002 0-.002 0-.004-2.875-5.754-1.316-12.848 3.707-16.867l12.172-9.738c10.555-8.445 25.203-9.08 36.445-1.582l1.914 1.277c25.777-12.695 47.855-19.568 89.062 1.033 39.086 19.541 98.652 19.785 99.25 19.785 1.699 0 3.211 1.074 3.773 2.676.562 1.604.051 3.387-1.273 4.447-32.187 25.752-80.699 16.545-89.656 14.553-19.362 8.619-36.12 11.83-50.323 11.83zm-57.86-33.506c1.277 0 2.496.613 3.254 1.676 1.305 1.801 32.848 43.977 102.863 12.156.824-.377 1.738-.461 2.625-.24.465.117 42.254 10.203 73.734-6.027-20.23-1.141-60.113-5.27-89.965-20.193-39.164-19.582-57.859-13.062-83.988 0-1.289.639-2.816.545-4.008-.25l-3.84-2.561c-8.336-5.557-19.188-5.082-27.008 1.172l-12.172 9.738c-2.098 1.68-2.75 4.641-1.551 7.045 1.133 2.268 3.562 3.508 6.074 3.094l33.324-5.555c.221-.038.44-.055.658-.055z" fill="#4c241d"/><path d="m142.011 164.896v20.2c0 12.63 6.312 24.423 16.82 31.429l3.387 2.258v13.472s-13.472 6.736-13.472 20.208h15.596c5.345 0 9.996-3.856 10.744-9.149.446-3.153 1.489-6.384 2.966-9.671 3.215-7.158 4.193-15.12 2.22-22.715-.996-3.834-2.452-8.093-4.582-12.353l6.736-20.208" fill="#a9ba5a"/><path d="m164.344 256.463h-15.598c-2.211 0-4-1.791-4-4 0-12.285 9.137-19.676 13.473-22.488v-9.051l-1.605-1.07c-11.648-7.766-18.602-20.76-18.602-34.758v-20.199c0-2.209 1.789-4 4-4s4 1.791 4 4v20.199c0 11.318 5.621 21.822 15.039 28.102l3.387 2.258c1.113.742 1.781 1.99 1.781 3.328v13.471c0 1.516-.855 2.9-2.211 3.578-.086.043-8.512 4.43-10.73 12.631h11.066c3.406 0 6.32-2.455 6.781-5.709.48-3.391 1.551-6.908 3.277-10.75 2.988-6.656 3.68-13.598 2-20.07-1.074-4.133-2.516-8.025-4.289-11.568-.473-.949-.551-2.047-.215-3.053l6.734-20.209c.699-2.096 2.949-3.238 5.059-2.531 2.094.699 3.227 2.963 2.527 5.059l-6.218 18.668c1.688 3.623 3.082 7.525 4.145 11.621 2.145 8.256 1.297 17.023-2.445 25.359-1.414 3.146-2.281 5.957-2.652 8.592-1.021 7.178-7.341 12.59-14.704 12.59z" fill="#4c241d"/><path d="m93.992 171.632v26.943l-7.95 8.818c-2.98 2.98-4.654 7.022-4.654 11.236v.829c0 3.347 2.714 6.061 6.061 6.061h1.35c3.347 0 6.061-2.714 6.061-6.061 0-4.658 2.22-9.038 5.976-11.793l8.476-6.215c6.309-4.626 9.339-12.509 7.753-20.17l-1.998-9.648" fill="#a9ba5a"/><g fill="#4c241d"><path d="m88.797 229.52h-1.348c-5.547 0-10.062-4.514-10.062-10.062v-.828c0-5.312 2.07-10.307 5.828-14.064l6.777-7.523v-25.41c0-2.209 1.789-4 4-4s4 1.791 4 4v26.945c0 .99-.367 1.943-1.027 2.678l-7.949 8.816c-2.391 2.398-3.629 5.385-3.629 8.559v.828c0 1.137.926 2.062 2.062 2.062h1.348c1.137 0 2.062-.926 2.062-2.062 0-5.908 2.844-11.523 7.609-15.018l8.48-6.217c5.031-3.689 7.465-10.021 6.199-16.133l-2-9.646c-.445-2.164.941-4.281 3.105-4.729 2.152-.461 4.277.941 4.73 3.104l2 9.648c1.898 9.17-1.758 18.672-9.309 24.209l-8.477 6.215c-2.715 1.992-4.34 5.195-4.34 8.566.004 5.548-4.512 10.062-10.059 10.062z"/><circle cx="53.992" cy="159.537" r="3.179"/></g></svg>