<svg id="dino16" enable-background="new 0 0 300 300" height="512" viewBox="0 0 300 300" width="512" xmlns="http://www.w3.org/2000/svg"><circle cx="173" cy="135" fill="#edebdc" r="90"/><path d="m67 73h-23c-4.971 0-9-4.029-9-9 0-1.947.632-3.842 1.8-5.4l10.527-14.036c3.571-4.762 9.176-7.564 15.128-7.564h9.722c14.814 0 26.823 12.009 26.823 26.823v58.313c0 10.418 8.446 18.864 18.864 18.864h64.819c31.103 0 56.317 25.214 56.317 56.317v25.683s10 32 26 40c0 0-34-2-46-34h-65.517c-47.763 0-86.483-38.72-86.483-86.483z" fill="#d9be6f"/><path d="m265.004 267c-.082 0-.16-.002-.238-.008-1.457-.084-34.93-2.42-48.469-33.992h-62.812c-49.895 0-90.485-40.59-90.485-90.482v-65.518h-19c-7.168 0-13-5.832-13-13 0-2.793.922-5.562 2.602-7.799l10.527-14.037c4.301-5.738 11.152-9.164 18.324-9.164h9.723c16.996 0 30.824 13.826 30.824 30.822v58.314c0 8.195 6.668 14.863 14.863 14.863h64.82c33.258.001 60.317 27.06 60.317 60.317v25.061c2.879 8.885 12.191 31.248 23.789 37.045 1.699.85 2.566 2.775 2.074 4.611-.469 1.758-2.062 2.967-3.859 2.967zm-202.551-226c-4.668 0-9.125 2.23-11.926 5.965l-10.527 14.035c-.645.861-1 1.926-1 3 0 2.758 2.242 5 5 5h23c2.211 0 4 1.791 4 4v69.518c0 45.48 37.004 82.482 82.484 82.482h65.516c1.668 0 3.16 1.035 3.746 2.596 6.039 16.104 18.227 23.992 28.008 27.832-9.707-12.75-15.258-30.232-15.57-31.234-.122-.387-.184-.79-.184-1.194v-25.684c0-28.847-23.469-52.316-52.317-52.316h-64.82c-12.605 0-22.863-10.256-22.863-22.863v-58.315c0-12.584-10.238-22.822-22.824-22.822z" fill="#4c241d"/><path d="m65 77c-2.211 0-4-1.791-4-4s1.789-4 4-4c7.719 0 14-6.281 14-14 0-2.209 1.789-4 4-4s4 1.791 4 4c0 12.131-9.871 22-22 22z" fill="#4c241d"/><path d="m167 183v12.933c0 11.635 9.432 21.067 21.067 21.067h2.933v24.5s-22 3.9-22 19.5h32.513c9.658 0 17.487-7.829 17.487-17.487v-44.913" fill="#d9be6f"/><path d="m201.512 265h-32.512c-2.211 0-4-1.791-4-4 0-14.791 15.121-20.721 22-22.654v-17.367c-13.328-.561-24-11.58-24-25.045v-12.934c0-2.209 1.789-4 4-4s4 1.791 4 4v12.934c0 9.41 7.656 17.066 17.066 17.066h2.934c2.211 0 4 1.791 4 4v24.5c0 1.934-1.391 3.592-3.293 3.938-.168.029-14.496 2.732-17.961 11.562h27.766c7.438 0 13.488-6.051 13.488-13.488v-44.912c0-2.209 1.789-4 4-4s4 1.791 4 4v44.912c0 11.849-9.641 21.488-21.488 21.488z" fill="#4c241d"/><path d="m147 191v2c0 8.837-7.163 16-16 16v36.613c0 8.498-6.889 15.387-15.387 15.387h-26.613s6-20 22-20v-44" fill="#d9be6f"/><g fill="#4c241d"><path d="m115.613 265h-26.613c-1.266 0-2.453-.598-3.211-1.611-.754-1.016-.984-2.326-.621-3.537.258-.865 6.094-19.699 21.832-22.504v-40.348c0-2.209 1.789-4 4-4s4 1.791 4 4v44c0 2.209-1.789 4-4 4-8.18 0-13.309 6.947-15.957 12h20.57c6.277 0 11.387-5.107 11.387-11.387v-36.613c0-2.209 1.789-4 4-4 6.617 0 12-5.383 12-12v-2c0-2.209 1.789-4 4-4s4 1.791 4 4v2c0 9.658-6.883 17.74-16 19.598v33.016c0 10.689-8.695 19.386-19.387 19.386z"/><circle cx="61" cy="51" r="2.932"/></g></svg>