<svg id="dino17" enable-background="new 0 0 300 300" height="512" viewBox="0 0 300 300" width="512" xmlns="http://www.w3.org/2000/svg"><circle cx="135.147" cy="134" fill="#edebdc" r="90"/><path d="m139.147 122 8-48 12 48z" fill="#d9be6f"/><path d="m159.147 126h-20c-1.176 0-2.293-.518-3.051-1.414-.762-.898-1.09-2.084-.895-3.244l8-48c.312-1.869 1.891-3.264 3.785-3.338 1.949-.092 3.582 1.189 4.039 3.025l12 48c.301 1.195.031 2.461-.727 3.432s-1.921 1.539-3.151 1.539zm-15.277-8h10.152l-6.09-24.373z" fill="#4c241d"/><path d="m164.114 128.498 14.168-46.554 5.663 49.152z" fill="#d9be6f"/><path d="m183.944 135.096c-.172 0-.348-.012-.52-.033l-19.828-2.598c-1.164-.154-2.207-.811-2.844-1.799s-.805-2.207-.465-3.332l14.164-46.555c.551-1.814 2.336-2.977 4.188-2.82 1.891.172 3.398 1.645 3.613 3.527l5.664 49.152c.141 1.223-.289 2.443-1.168 3.307-.749.743-1.761 1.151-2.804 1.151zm-14.629-9.951 10.07 1.32-2.879-24.955z" fill="#4c241d"/><path d="m114.471 135.128 1.461-48.64 18.357 45.946z" fill="#d9be6f"/><path d="m114.471 139.129c-.98 0-1.938-.361-2.676-1.027-.875-.785-1.359-1.918-1.324-3.092l1.461-48.641c.059-1.895 1.438-3.49 3.305-3.82 1.836-.326 3.703.691 4.41 2.455l18.355 45.945c.457 1.145.359 2.436-.258 3.498-.621 1.064-1.699 1.783-2.918 1.949l-19.816 2.695c-.179.026-.359.038-.539.038zm4.883-33.297-.742 24.697 10.062-1.369z" fill="#4c241d"/><path d="m92.346 143.553-2.137-48.615 21.701 44.464z" fill="#d9be6f"/><path d="m92.346 147.553c-.879 0-1.742-.289-2.449-.838-.93-.719-1.496-1.812-1.547-2.986l-2.137-48.615c-.082-1.893 1.172-3.586 3.012-4.053 1.848-.465 3.754.422 4.578 2.123l21.699 44.465c.543 1.107.543 2.4 0 3.508-.539 1.107-1.559 1.904-2.762 2.158l-19.562 4.15c-.277.058-.554.088-.832.088zm2.703-33.576 1.086 24.684 9.934-2.107z" fill="#4c241d"/><path d="m186.983 132.603 25.178-41.642-6.595 49.036z" fill="#d9be6f"/><path d="m205.565 143.996c-.5 0-1.004-.094-1.48-.283l-18.582-7.393c-1.09-.436-1.938-1.328-2.312-2.443-.375-1.113-.238-2.338.371-3.344l25.18-41.643c.977-1.623 2.961-2.324 4.75-1.703 1.789.631 2.891 2.428 2.637 4.307l-6.598 49.035c-.164 1.221-.883 2.297-1.945 2.92-.623.363-1.322.547-2.021.547zm-12.715-13.363 9.434 3.754 3.352-24.896z" fill="#4c241d"/><path d="m207.548 144.474 33.198-35.58-16.531 46.634z" fill="#d9be6f"/><path d="m224.213 159.527c-.777 0-1.547-.227-2.211-.666l-16.664-11.055c-.98-.65-1.625-1.699-1.762-2.867-.137-1.166.246-2.336 1.047-3.195l33.195-35.578c1.301-1.389 3.395-1.67 5-.691 1.621.984 2.328 2.971 1.695 4.756l-16.531 46.633c-.41 1.162-1.336 2.068-2.504 2.459-.413.136-.839.204-1.265.204zm-10.519-15.777 8.461 5.611 8.395-23.676z" fill="#4c241d"/><path d="m78.919 168.701c13.997 26.167 49.752 67.63 129.442 40.615 22.178-7.518 41.123-23.137 50.848-44.44 3.938-8.625 6.938-18.875 7.938-30.875v-76.001s-4 68-32 96c0 0-60-80-140-16l-9.839-9.839c-6.258-6.258-15.447-8.575-23.925-6.032l-17.977 5.393c-5.121 1.536-9.054 5.657-10.351 10.843-1.006 4.025 1.794 8.005 5.922 8.417l8.959.896c13.218 1.323 24.717 9.309 30.983 21.023z" fill="#a9ba5a"/><path d="m159.877 222.182c-48.297 0-73.016-30.156-84.484-51.594-5.711-10.68-16.125-17.756-27.855-18.928l-8.957-.896c-3.125-.312-5.953-1.965-7.762-4.533-1.805-2.568-2.406-5.789-1.641-8.836 1.629-6.521 6.641-11.771 13.078-13.705l17.977-5.393c9.898-2.967 20.594-.271 27.902 7.035l7.336 7.336c23.922-18.26 48.484-25.922 73.035-22.811 34.512 4.381 58.621 28.627 66.809 38.047 23.938-28.377 27.801-89.5 27.84-90.139.125-2.166 2.043-3.871 4.109-3.764 2.164.062 3.883 1.834 3.883 3.998v76c-.965 11.742-3.754 22.576-8.297 32.537-9.797 21.451-29.188 38.424-53.203 46.566-18.863 6.396-35.371 9.08-49.77 9.08zm-77.429-55.368c13.688 25.594 48.082 64.66 124.629 38.711 21.938-7.436 39.613-22.857 48.496-42.312 4.16-9.117 6.715-19.057 7.59-29.545l-.008-27.236c-4.922 18.436-12.766 37.984-25.18 50.396-.82.82-1.945 1.262-3.109 1.16-1.156-.08-2.219-.66-2.918-1.586-.254-.336-25.801-33.738-64.516-38.617-23.266-2.947-46.762 4.916-69.785 23.338-1.586 1.27-3.883 1.148-5.328-.295l-9.84-9.84c-5.223-5.223-12.867-7.152-19.949-5.027l-17.977 5.393c-3.746 1.125-6.664 4.184-7.617 7.982-.27 1.082.152 1.9.426 2.291.277.393.906 1.064 2.016 1.176l8.957.896c14.386 1.438 27.14 10.078 34.113 23.115z" fill="#4c241d"/><path d="m217.147 174.1v69.691c0 4.534-3.676 8.209-8.209 8.209h-31.791c0-6.627 5.373-12 12-12h4v-32c-11.046 0-20-8.954-20-20v-18" fill="#a9ba5a"/><path d="m208.936 256h-31.789c-2.211 0-4-1.791-4-4 0-8.822 7.176-16 16-16v-24.334c-11.336-1.91-20-11.795-20-23.666v-18c0-2.209 1.789-4 4-4s4 1.791 4 4v18c0 8.822 7.176 16 16 16 2.211 0 4 1.791 4 4v32c0 2.209-1.789 4-4 4h-4c-2.957 0-5.543 1.611-6.926 4h26.715c2.32 0 4.211-1.889 4.211-4.209v-69.691c0-2.209 1.789-4 4-4s4 1.791 4 4v69.691c0 6.732-5.477 12.209-12.211 12.209z" fill="#4c241d"/><path d="m137.147 192v11.056c0 5.482-3.097 10.493-8 12.944v27.791c0 4.534-3.676 8.209-8.209 8.209h-27.791c0-6.627 5.373-12 12-12h4v-56" fill="#a9ba5a"/><g fill="#4c241d"><path d="m120.936 256h-27.789c-2.211 0-4-1.791-4-4 0-8.822 7.176-16 16-16v-52c0-2.209 1.789-4 4-4s4 1.791 4 4v56c0 2.209-1.789 4-4 4h-4c-2.957 0-5.543 1.611-6.926 4h22.715c2.32 0 4.211-1.889 4.211-4.209v-27.791c0-1.516.855-2.9 2.211-3.578 3.57-1.785 5.789-5.373 5.789-9.365v-11.057c0-2.209 1.789-4 4-4s4 1.791 4 4v11.057c0 6.176-3.012 11.805-8 15.221v25.514c0 6.731-5.477 12.208-12.211 12.208z"/><circle cx="67.147" cy="134" r="2.886"/></g></svg>