<svg id="dino18" enable-background="new 0 0 300 300" height="512" viewBox="0 0 300 300" width="512" xmlns="http://www.w3.org/2000/svg"><circle cx="179.617" cy="132" fill="#edebdc" r="90"/><path d="m165.617 114s-4-32 28-36v40z" fill="#a9ba5a"/><path d="m193.617 122c-.188 0-.379-.014-.566-.041l-28-4c-1.785-.254-3.18-1.674-3.402-3.463-1.555-12.441 3.02-36.908 31.473-40.465 1.133-.143 2.285.209 3.145.971.859.758 1.352 1.852 1.352 2.998v40c0 1.16-.504 2.262-1.379 3.021-.732.635-1.666.979-2.623.979zm-24.179-11.494 20.18 2.883v-30.592c-18.239 4.539-20.188 20.869-20.18 27.709z" fill="#4c241d"/><path d="m195.908 122.028s10.823-30.379 41.202-19.556l-17.994 35.724z" fill="#a9ba5a"/><path d="m219.113 142.195c-.809 0-1.609-.246-2.285-.719l-23.207-16.168c-1.48-1.031-2.09-2.924-1.484-4.623 4.211-11.811 19.297-31.6 46.316-21.98 1.078.385 1.941 1.215 2.371 2.281.426 1.064.375 2.262-.141 3.285l-17.996 35.723c-.523 1.037-1.469 1.795-2.594 2.078-.323.082-.652.123-.98.123zm-18.234-21.58 16.738 11.662 13.762-27.322c-18.441-4.217-27.465 9.537-30.5 15.66z" fill="#4c241d"/><path d="m226.397 139.155s13.381-20.058 33.438-6.677l-19.554 22.628z" fill="#a9ba5a"/><path d="m240.281 159.105c-1.156 0-2.258-.5-3.016-1.373l-13.883-15.951c-1.188-1.361-1.312-3.346-.312-4.846.16-.238 3.945-5.844 10.543-9.611 6.316-3.605 16.383-6.219 28.441 1.826.957.637 1.59 1.652 1.746 2.791.152 1.137-.188 2.285-.938 3.152l-19.555 22.627c-.758.877-1.859 1.383-3.02 1.385-.002 0-.002 0-.006 0zm-8.656-20.037 8.645 9.932 13.332-15.426c-5.531-2.447-10.91-2.225-16.023.697-2.571 1.469-4.602 3.344-5.954 4.797z" fill="#4c241d"/><path d="m128.975 112.391s-10.115-30.622 20.507-40.737l7.738 39.244z" fill="#a9ba5a"/><path d="m128.977 116.391c-1.719 0-3.254-1.1-3.797-2.744-.117-.35-2.809-8.664-1.391-18.406 1.344-9.256 6.68-21.518 24.438-27.385 1.094-.361 2.281-.234 3.27.344.992.58 1.688 1.555 1.91 2.682l7.738 39.244c.223 1.137-.059 2.316-.77 3.23-.711.916-1.789 1.477-2.945 1.537l-28.242 1.492c-.071.004-.141.006-.211.006zm17.507-39.256c-17.016 7.982-15.77 24.381-14.434 31.088l20.352-1.076z" fill="#4c241d"/><path d="m94.023 124.954s-11.816-30.006 18.19-41.822l9.926 38.749z" fill="#a9ba5a"/><path d="m94.02 128.953c-1.625 0-3.109-.992-3.719-2.535-.133-.342-3.289-8.492-2.418-18.299.824-9.314 5.465-21.857 22.867-28.711 1.066-.422 2.262-.363 3.285.16s1.77 1.459 2.055 2.57l9.926 38.75c.289 1.123.074 2.316-.586 3.27s-1.703 1.572-2.855 1.699l-28.117 3.072c-.145.016-.294.024-.438.024zm15.511-40.183c-16.547 8.926-14.379 25.229-12.672 31.85l20.262-2.213z" fill="#4c241d"/><path d="m57.617 122v10.876c0 38.176 30.948 69.124 69.124 69.124h102.876l36 52s12-104-60-140-124 20-124 20v-30.349c0-7.623-6.713-13.576-14.262-12.515-10.047 1.412-23.046 4.578-30.825 11.677-1.911 1.744-2.913 4.275-2.913 6.862v2.872c0 5.22 4.232 9.452 9.452 9.452h14.548z" fill="#d9be6f"/><path d="m265.617 258c-1.293 0-2.531-.627-3.289-1.723l-34.808-50.277h-100.778c-40.32 0-73.125-32.803-73.125-73.123v-6.877h-10.547c-7.418 0-13.453-6.033-13.453-13.451v-2.873c0-3.791 1.535-7.369 4.219-9.814 8.613-7.867 22.68-11.24 32.961-12.686 4.73-.662 9.48.758 13.086 3.891 3.645 3.168 5.734 7.756 5.734 12.586v21.34c16.918-13.92 63.234-43.846 121.789-14.57 30.59 15.295 51.039 45.139 59.137 86.307 6.051 30.758 3.172 56.643 3.047 57.73-.191 1.654-1.387 3.018-3 3.422-.324.079-.649.118-.973.118zm-196.504-162.986c-.395 0-.797.027-1.203.084-9.16 1.289-21.578 4.186-28.684 10.672-1.023.934-1.609 2.357-1.609 3.906v2.873c0 3.006 2.445 5.451 5.453 5.451h14.547c2.211 0 4 1.791 4 4v10.877c0 35.908 29.215 65.123 65.125 65.123h102.875c1.312 0 2.543.645 3.289 1.723l29.359 42.41c.578-27.504-3.66-97.166-58.438-124.555-68.523-34.26-118.781 18.605-119.281 19.145-1.117 1.203-2.875 1.602-4.391 1-1.531-.602-2.539-2.078-2.539-3.723v-30.348c0-2.514-1.086-4.9-2.984-6.549-1.573-1.369-3.499-2.089-5.519-2.089z" fill="#4c241d"/><path d="m237.617 178-12 72h-40v-4c0-6.627 5.373-12 12-12h4v-28c-11.046 0-20-8.954-20-20v-12" fill="#d9be6f"/><path d="m225.617 254h-40c-2.211 0-4-1.791-4-4v-4c0-8.822 7.176-16 16-16v-20.334c-11.336-1.91-20-11.795-20-23.666v-12c0-2.209 1.789-4 4-4s4 1.791 4 4v12c0 8.822 7.176 16 16 16 2.211 0 4 1.791 4 4v28c0 2.209-1.789 4-4 4h-4c-4.41 0-8 3.588-8 8h32.613l11.441-68.658c.363-2.178 2.418-3.66 4.602-3.287 2.18.363 3.652 2.424 3.289 4.604l-12 72c-.32 1.927-1.988 3.341-3.945 3.341z" fill="#4c241d"/><path d="m125.617 190v16c0 6.627-5.373 12-12 12v32h-32c0-6.627 5.373-12 12-12v-56" fill="#d9be6f"/><g fill="#4c241d"><path d="m113.617 254h-32c-2.211 0-4-1.791-4-4 0-7.441 5.105-13.713 12-15.494v-52.506c0-2.209 1.789-4 4-4s4 1.791 4 4v56c0 2.209-1.789 4-4 4-2.957 0-5.543 1.611-6.926 4h22.926v-28c0-2.209 1.789-4 4-4 4.41 0 8-3.588 8-8v-16c0-2.209 1.789-4 4-4s4 1.791 4 4v16c0 7.441-5.105 13.713-12 15.494v28.506c0 2.209-1.789 4-4 4z"/><path d="m65.617 126h-13.09c-2.211 0-4-1.791-4-4s1.789-4 4-4h13.09c2.211 0 4 1.791 4 4s-1.789 4-4 4z"/><circle cx="59.617" cy="104" r="3.212"/></g></svg>