<svg id="dino23" enable-background="new 0 0 300 300" height="512" viewBox="0 0 300 300" width="512" xmlns="http://www.w3.org/2000/svg"><circle cx="122" cy="128" fill="#edebdc" r="90"/><circle cx="108" cy="94" fill="#d9be6f" r="24"/><path d="m108 122c-15.439 0-28-12.561-28-28s12.561-28 28-28 28 12.561 28 28-12.561 28-28 28zm0-48c-11.027 0-20 8.973-20 20s8.973 20 20 20 20-8.973 20-20-8.973-20-20-20z" fill="#4c241d"/><path d="m136 182v22.286c0 8.621 4.107 16.725 11.059 21.823l10.76 7.89v12h-2.687c-6.025 0-10.909 5.373-10.909 12h31.777v-36l-10.909-12s19.131-16 .949-40" fill="#a9ba5a"/><path d="m176 262h-31.777c-2.209 0-4-1.791-4-4 0-8.348 5.988-15.223 13.596-15.939v-6.033l-9.125-6.693c-7.95-5.829-12.694-15.192-12.694-25.048v-22.287c0-2.209 1.791-4 4-4s4 1.791 4 4v22.287c0 7.316 3.523 14.27 9.424 18.598l10.76 7.889c1.027.754 1.635 1.953 1.635 3.227v12c0 2.209-1.791 4-4 4h-2.688c-2.553 0-4.785 1.611-5.98 4h22.849v-30.453l-9.869-10.855c-.734-.807-1.105-1.877-1.031-2.965.074-1.086.588-2.096 1.424-2.795.643-.549 15.896-13.967.33-34.516-1.334-1.762-.988-4.27.771-5.604 1.764-1.342 4.273-.986 5.604.771 15.498 20.457 6.482 36.135 1.297 42.449l8.434 9.275c.67.736 1.041 1.695 1.041 2.691v36c-.001 2.21-1.792 4.001-4.001 4.001z" fill="#4c241d"/><path d="m52 118c0-8.837 7.163-16 16-16h20c0-6.627 5.373-12 12-12h8c6.627 0 12 5.373 12 12v32l32-12s52-16 84 36l28-56v47.876c0 26.578-21.546 48.124-48.124 48.124h-51.96c-7.713 0-15.197-2.625-21.22-7.444l-10.696-8.556c-18.731 0-34.984-12.929-39.195-31.18l-4.805-20.82h-18.275c-17.725 0-17.725-12-17.725-12z" fill="#a9ba5a"/><path d="m215.875 202h-51.959c-8.588 0-17.012-2.955-23.719-8.32l-9.629-7.703c-20.096-.633-37.111-14.541-41.662-34.258l-4.088-17.719h-15.093c-21.477 0-21.725-15.84-21.725-16 0-11.027 8.973-20 20-20h16.506c1.781-6.893 8.053-12 15.494-12h8c8.822 0 16 7.178 16 16v26.229l26.596-9.975c.746-.236 51.471-15.152 84.92 31.771l24.906-49.814c.83-1.658 2.68-2.531 4.498-2.104 1.805.426 3.08 2.037 3.08 3.893v47.875c0 28.742-23.383 52.125-52.125 52.125zm-159.875-84.047c.041.924.781 8.047 13.725 8.047h18.275c1.863 0 3.479 1.285 3.898 3.1l4.805 20.82c3.815 16.533 18.328 28.08 35.297 28.08.908 0 1.789.309 2.498.877l10.695 8.557c5.295 4.234 11.943 6.566 18.723 6.566h51.959c24.33 0 44.125-19.795 44.125-44.125v-30.932l-20.422 40.846c-.65 1.299-1.951 2.143-3.402 2.207-1.436.037-2.82-.662-3.582-1.9-12.623-20.51-29.84-32.5-51.176-35.639-15.916-2.336-28.121 1.328-28.242 1.365l-31.771 11.924c-1.227.461-2.604.287-3.684-.459-1.078-.746-1.721-1.975-1.721-3.287v-32c0-4.412-3.588-8-8-8h-8c-4.412 0-8 3.588-8 8 0 2.209-1.791 4-4 4h-20c-6.602 0-11.975 5.357-12 11.953z" fill="#4c241d"/><path d="m132.949 174-9.926 14.544c-3.367 4.933-10.371 5.63-14.644 1.456l-16.379 16v-18.286c0-5.365 4.452-9.714 9.945-9.714h14.625v-7.132c0-9.316 7.731-16.868 17.269-16.868h3.206" fill="#a9ba5a"/><path d="m92 210c-.523 0-1.051-.102-1.553-.314-1.482-.624-2.447-2.077-2.447-3.686v-18.285c0-7.563 6.256-13.715 13.945-13.715h10.625v-3.131c0-11.508 9.541-20.869 21.268-20.869h3.207c2.209 0 4 1.791 4 4s-1.791 4-4 4h-3.207c-7.316 0-13.268 5.773-13.268 12.869v7.131c0 2.209-1.791 4-4 4h-14.625c-3.277 0-5.945 2.564-5.945 5.715v8.785l9.584-9.361c1.555-1.52 4.035-1.52 5.59 0 1.189 1.16 2.811 1.715 4.471 1.568 1.652-.164 3.139-1.047 4.074-2.42l9.926-14.543c1.248-1.824 3.732-2.295 5.561-1.049 1.824 1.246 2.293 3.734 1.049 5.561l-9.926 14.543c-2.273 3.33-5.879 5.469-9.891 5.869-2.676.266-5.322-.262-7.646-1.479l-13.996 13.672c-.763.744-1.773 1.139-2.796 1.139z" fill="#4c241d"/><path d="m164 182v21.378c0 9.125 4.598 17.635 12.23 22.636l12.188 7.986v12h-3.896c-6.454 0-11.687 5.373-11.687 12h31.165v-36l-13.635-14s25.321-14 5.843-38" fill="#a9ba5a"/><g fill="#4c241d"><path d="m204 262h-31.164c-2.209 0-4-1.791-4-4 0-8.787 6.98-15.943 15.582-16v-5.838l-10.379-6.803c-8.791-5.758-14.039-15.471-14.039-25.98v-21.379c0-2.209 1.791-4 4-4s4 1.791 4 4v21.379c0 7.803 3.896 15.014 10.422 19.289l12.188 7.986c1.129.738 1.809 1.996 1.809 3.346v12c0 2.209-1.791 4-4 4h-3.896c-2.84 0-5.324 1.611-6.654 4h22.131v-30.375l-12.5-12.834c-.871-.895-1.273-2.143-1.092-3.377.182-1.232.93-2.311 2.021-2.914.08-.045 9.197-5.258 10.875-14.051 1.055-5.527-1.031-11.559-6.201-17.928-1.393-1.717-1.131-4.234.584-5.627 1.719-1.391 4.236-1.131 5.627.584 6.748 8.314 9.383 16.574 7.834 24.547-1.527 7.854-6.811 13.424-10.645 16.545l10.361 10.639c.729.748 1.135 1.748 1.135 2.791v36c.001 2.209-1.79 4-3.999 4z"/><path d="m151.312 126.467c-1.865 0-3.535-1.311-3.918-3.211l-3.316-16.467c-.436-2.164.967-4.273 3.133-4.711 2.15-.422 4.275.965 4.711 3.133l3.316 16.467c.436 2.164-.967 4.273-3.133 4.711-.265.052-.531.078-.793.078z"/><path d="m175.6 121.902c-.035 0-.068 0-.104-.002-2.209-.055-3.953-1.891-3.896-4.1l.402-15.902c.055-2.211 1.895-4.104 4.1-3.896 2.209.055 3.953 1.891 3.896 4.1l-.402 15.902c-.055 2.174-1.834 3.898-3.996 3.898z"/><path d="m199.93 126.973c-.721 0-1.451-.193-2.107-.604-1.877-1.166-2.451-3.633-1.285-5.508l8.066-12.973c1.164-1.879 3.633-2.461 5.508-1.285 1.877 1.166 2.451 3.633 1.285 5.508l-8.066 12.973c-.759 1.219-2.065 1.889-3.401 1.889z"/><path d="m221.229 140.662c-1.031 0-2.061-.396-2.844-1.186-1.553-1.57-1.541-4.104.029-5.658l10.771-10.662c1.57-1.553 4.104-1.535 5.658.029 1.553 1.57 1.541 4.104-.029 5.658l-10.771 10.662c-.779.772-1.797 1.157-2.814 1.157z"/><circle cx="98" cy="112" r="2.799"/></g></svg>