<svg id="dino4" enable-background="new 0 0 300 300" height="512" viewBox="0 0 300 300" width="512" xmlns="http://www.w3.org/2000/svg"><circle cx="118.001" cy="127.707" fill="#edebdc" r="90"/><path d="m45.854 67.853 60.02 55.019c7.467 6.845 16.591 11.622 26.47 13.859l5.456 1.235c14.634 3.314 28.158 10.366 39.252 20.467 7.654 6.97 13.628 15.584 17.473 25.196 3.964 9.909 10.576 18.538 19.115 24.942l58.36 43.77s-71.415 17.854-119.024-23.805c0 0-40.067 28.626-76.57 17.289l-17.236-18.468s10.489-34.528 34.294-52.382c0 0-59.512-35.707-47.61-107.122z" fill="#fc8c29"/><path d="m235.512 260.252c-24.471 0-56.6-5.094-82.818-26.707-9.734 6.273-44.516 26.334-77.475 16.1-.664-.207-1.262-.582-1.736-1.092l-17.236-18.467c-.975-1.043-1.318-2.525-.904-3.891.418-1.375 9.91-31.996 31.475-50.965-14.085-10.474-55.118-46.787-44.909-108.035.24-1.447 1.256-2.646 2.643-3.123 1.383-.479 2.922-.158 4.006.832l60.02 55.018c6.941 6.365 15.465 10.828 24.65 12.908l5.459 1.236c15.273 3.457 29.473 10.861 41.061 21.41 8.051 7.33 14.445 16.551 18.492 26.666 3.693 9.232 9.848 17.264 17.803 23.227l58.359 43.773c1.234.926 1.826 2.479 1.52 3.99-.305 1.514-1.453 2.715-2.949 3.09-1.359.34-16.637 4.03-37.461 4.03zm-82.535-35.715c.943 0 1.885.334 2.635.99 35.859 31.375 86.582 27.619 106.711 24.555l-51.082-38.312c-9.127-6.844-16.193-16.061-20.43-26.656-3.6-8.998-9.289-17.201-16.451-23.723-10.564-9.619-23.512-16.369-37.441-19.523l-5.459-1.236c-10.539-2.385-20.322-7.508-28.289-14.811l-54.37-49.839c-6.281 62.807 44.479 94.209 46.725 95.564 1.139.688 1.863 1.896 1.93 3.225.068 1.328-.527 2.605-1.592 3.402-19.121 14.342-29.441 40.543-32.143 48.197l14.871 15.932c33.879 9.779 71.68-16.752 72.062-17.021.698-.498 1.513-.744 2.323-.744z" fill="#4c241d"/><path d="m28.001 258.292 46.077-41.888c6.858-6.234 13.398-12.841 19.147-20.11 9.615-12.156 26.117-25.348 36.633-31.226 22.022-12.309 56.791-33.635 64.776-49.605l-59.512-5.951s47.61-11.902 113.073-11.902l-55.154 50.14c-6.827 6.206-12.595 13.486-17.076 21.551l-11.332 20.398c-7.637 13.747-18.756 25.243-32.241 33.334-6.093 3.656-12.6 6.575-19.383 8.694z" fill="#ffce56"/><g fill="#4c241d"><path d="m28.001 262.293c-1.404 0-2.742-.742-3.471-2.012-.934-1.627-.609-3.686.779-4.947l46.078-41.889c7.596-6.906 13.713-13.326 18.701-19.633 10.221-12.922 27.113-26.254 37.818-32.236 29.662-16.578 50.818-31.783 59.74-42.793l-52.924-5.291c-1.934-.193-3.449-1.75-3.592-3.689-.141-1.939 1.133-3.699 3.02-4.172.482-.119 48.844-12.021 114.045-12.021 1.652 0 3.135 1.016 3.73 2.557.596 1.543.184 3.291-1.039 4.402l-55.154 50.141c-6.52 5.926-11.992 12.834-16.271 20.535l-11.332 20.398c-7.965 14.338-19.611 26.379-33.678 34.82-6.359 3.814-13.172 6.871-20.248 9.082l-85.01 26.566c-.394.123-.796.182-1.192.182zm134.914-154.022 32.119 3.211c1.309.131 2.469.898 3.105 2.049.635 1.152.662 2.545.074 3.721-8.145 16.285-40.605 36.891-66.404 51.309-10.172 5.686-26.213 18.541-35.447 30.217-5.262 6.65-11.672 13.385-19.592 20.586l-32.684 29.711 67.73-21.166c6.473-2.021 12.703-4.816 18.518-8.305 12.865-7.721 23.516-18.732 30.803-31.848l11.332-20.398c4.701-8.463 10.719-16.055 17.881-22.566l47.387-43.078c-30.565.595-56.707 3.7-74.822 6.557z"/><circle cx="212.001" cy="109.707" r="3.341"/></g></svg>