<svg id="dino5" enable-background="new 0 0 300 300" height="512" viewBox="0 0 300 300" width="512" xmlns="http://www.w3.org/2000/svg"><circle cx="170" cy="147.884" fill="#edebdc" r="90"/><path d="m83.907 150.302s0-16.465-21.953-16.465-21.954-21.953-21.954-21.953-8 26 12 34c0 0 16 4 19.829 9.756z" fill="#e7d1c4"/><path d="m71.83 159.64c-1.305 0-2.57-.641-3.332-1.785-2.027-3.047-11.621-6.629-17.469-8.09-.176-.045-.348-.1-.516-.166-18.525-7.412-17.479-28.68-14.336-38.891.582-1.893 2.459-3.094 4.418-2.779 1.957.293 3.404 1.977 3.404 3.955.016 1.824.645 17.953 17.953 17.953 25.656 0 25.953 20.26 25.953 20.465 0 1.584-.934 3.018-2.383 3.658l-12.078 5.338c-.522.232-1.071.342-1.614.342zm-18.58-17.567c2.994.766 13.826 3.789 19.561 8.76l6.705-2.965c-1.014-3.693-4.635-10.031-17.563-10.031-8.695 0-14.682-3.047-18.691-7.24 1.273 4.656 4.144 9.054 9.988 11.476zm30.656 8.229h.039zm0 0h.039z" fill="#4c241d"/><path d="m103.349 199.698-5.488 38.418h10.976l21.954-38.418z" fill="#d9be6f"/><path d="m108.838 242.116h-10.977c-1.16 0-2.262-.504-3.021-1.379-.76-.877-1.102-2.039-.938-3.188l5.488-38.418c.281-1.971 1.969-3.434 3.959-3.434h27.441c1.426 0 2.744.76 3.459 1.992.717 1.232.721 2.754.014 3.992l-21.953 38.418c-.71 1.248-2.036 2.017-3.472 2.017zm-6.365-8h4.045l17.381-30.418h-17.08z" fill="#4c241d"/><path d="m39.196 172.256h9.269l6.045-9.068c3.081-4.621 8.268-7.397 13.822-7.397h2.086s21.953-16.465 21.953-32.93c0 0 27.442-5.488 38.419 27.442 0 0 27.442-32.93 71.349-5.488s65.861 27.441 65.861 27.441-10.977 27.442-54.884 27.442c-7.154 10.731-18.986 17.438-31.873 17.947-29.16 1.152-80.639-.385-99.848-23.435 0 0-24.693 4.939-45.971-8.608-2.109-1.343-3.425-3.649-3.425-6.15.001-3.974 3.223-7.196 7.197-7.196z" fill="#d9be6f"/><path d="m167.766 221.915c-29.406 0-69.615-3.926-87.912-23.412-6.918.91-27.826 2.41-46.576-9.525-3.305-2.105-5.277-5.666-5.277-9.525 0-6.174 5.021-11.195 11.195-11.195h7.129l4.857-7.287c3.834-5.748 10.244-9.18 17.15-9.18h.715c6.23-4.979 19.326-17.764 19.326-28.93 0-1.906 1.346-3.549 3.215-3.922.287-.061 27.629-5.131 40.775 24.354 10.113-8.49 36.109-24.24 71.898-1.871 42.441 26.529 63.531 26.836 63.738 26.836 1.328 0 2.566.658 3.312 1.758.742 1.1.895 2.496.402 3.729-.484 1.203-12.152 29.082-56.508 29.936-7.961 10.764-20.441 17.436-33.809 17.963-4.138.162-8.736.271-13.63.271zm-86.371-31.705c1.174 0 2.305.518 3.072 1.439 18.123 21.748 68.307 23.119 96.619 22 11.523-.457 22.254-6.502 28.703-16.17.742-1.113 1.992-1.781 3.328-1.781 29.746 0 43.203-12.967 48.398-20.217-9.687-1.789-30.191-7.709-61.496-27.275-40.484-25.305-65.127 3.424-66.156 4.656-.93 1.113-2.385 1.637-3.814 1.369-1.426-.268-2.594-1.289-3.053-2.664-7.746-23.244-24.158-25.293-30.914-25.061-2.637 16.83-22.367 31.811-23.264 32.482-.693.52-1.535.801-2.4.801h-2.086c-4.225 0-8.148 2.1-10.494 5.617l-6.045 9.068c-.742 1.113-1.99 1.781-3.328 1.781h-9.27c-1.762 0-3.195 1.434-3.195 3.195 0 1.111.588 2.148 1.574 2.777 19.691 12.533 42.803 8.105 43.035 8.059.262-.051.526-.076.786-.076z" fill="#4c241d"/><path d="m180.186 172.256c-3.463 10.389-1.936 21.794 4.139 30.906l8.956 13.434c2.198 3.297 3.371 7.17 3.371 11.132v10.389h16.465s21.953-32.93 10.977-60.372" fill="#d9be6f"/><path d="m213.117 242.116h-16.465c-2.211 0-4-1.791-4-4v-10.389c0-3.18-.934-6.262-2.699-8.916l-8.957-13.432c-6.809-10.213-8.484-22.746-4.602-34.389.695-2.094 2.949-3.229 5.059-2.529 2.094.699 3.227 2.965 2.527 5.061-3.094 9.283-1.758 19.277 3.672 27.42l8.957 13.434c2.645 3.973 4.043 8.59 4.043 13.352v6.389h10.234c4.148-6.994 18.164-33.209 9.492-54.885-.82-2.053.18-4.379 2.23-5.201 2.031-.812 4.379.178 5.199 2.229 11.625 29.062-10.418 62.66-11.363 64.076-.741 1.112-1.991 1.78-3.327 1.78z" fill="#4c241d"/><path d="m119.814 205.186 5.488 32.93h10.977l5.489-27.442" fill="#d9be6f"/><g fill="#4c241d"><path d="m136.277 242.116h-10.975c-1.955 0-3.625-1.414-3.945-3.342l-5.488-32.93c-.363-2.18 1.109-4.24 3.287-4.604 2.197-.375 4.24 1.111 4.604 3.287l4.932 29.588h4.307l4.846-24.227c.434-2.166 2.539-3.566 4.707-3.137 2.164.434 3.57 2.541 3.137 4.707l-5.488 27.441c-.377 1.872-2.017 3.217-3.924 3.217z"/><path d="m81.395 198.21c-1.023 0-2.047-.391-2.828-1.172-1.561-1.561-1.562-4.088-.006-5.65 1.123-1.137 4.322-5.068 4.322-8.154 0-2.209 1.791-4 4-4s4 1.791 4 4c0 6.945-5.979 13.123-6.66 13.805-.782.78-1.805 1.171-2.828 1.171z"/><path d="m108.834 192.722c-1.922 0-3.615-1.387-3.941-3.342-.363-2.18 1.109-4.24 3.287-4.604 8.283-1.381 14.104-4.771 17.299-10.078 5.871-9.75 1.562-23 1.518-23.131-.699-2.098.434-4.361 2.531-5.061 2.09-.709 4.361.436 5.059 2.531.229.684 5.5 16.914-2.254 29.787-4.457 7.402-12.141 12.059-22.836 13.842-.223.038-.446.056-.663.056z"/><path d="m37.488 176.257c-1.023 0-2.047-.391-2.828-1.172-6.472-6.475-6.66-13.076-6.66-13.807 0-2.209 1.791-4 4-4 2.189 0 3.969 1.76 4 3.941.01.254.238 4.129 4.316 8.209 1.562 1.562 1.562 4.096 0 5.656-.781.782-1.804 1.173-2.828 1.173zm-1.488-14.979h.039z"/><circle cx="67.674" cy="169.512" r="2.995"/></g></svg>