<svg id="dino6" enable-background="new 0 0 300 300" height="512" viewBox="0 0 300 300" width="512" xmlns="http://www.w3.org/2000/svg"><circle cx="143.999" cy="121.959" fill="#edebdc" r="90"/><path d="m31.999 265.959s36-20 28-60 12-68 48-76 92 28 92 28l20.743-110.629c1.755-9.358 11.122-15.226 20.308-12.72l20.265 5.527c3.947 1.076 6.685 4.661 6.685 8.752 0 5.01-4.061 9.071-9.071 9.071h-10.929l-20 132s-4 36-44 40-100 4-100 4-16.001 31.999-52.001 31.999z" fill="#9dc1e4"/><path d="m31.999 269.959c-1.82 0-3.406-1.23-3.867-2.992-.461-1.76.332-3.611 1.918-4.5 1.363-.766 33.34-19.152 26.027-55.723-8.191-40.953 11.371-71.871 51.055-80.689 31.148-6.938 75.172 16.729 90.004 25.471l19.676-104.932c1.039-5.555 4.383-10.463 9.176-13.463s10.664-3.863 16.117-2.381l20.262 5.527c5.672 1.547 9.633 6.732 9.633 12.609 0 7.209-5.863 13.072-13.07 13.072h-7.488l-19.488 128.6c-.02.234-4.828 39.107-47.555 43.381-35.262 3.525-86.52 3.959-98.047 4.012-4.525 7.625-21.568 32.008-54.353 32.008zm87.382-137.17c-3.66 0-7.184.334-10.516 1.074-34.965 7.771-52.188 35.096-44.945 71.311 5.281 26.408-7.516 44.785-18 54.934 23.492-6.467 34.375-27.686 34.5-27.937.68-1.355 2.062-2.211 3.578-2.211.598 0 60.262-.047 99.602-3.98 36.363-3.637 40.273-35.123 40.422-36.461l20.024-132.159c.293-1.955 1.977-3.4 3.953-3.4h10.93c2.797 0 5.07-2.275 5.07-5.072 0-2.279-1.535-4.291-3.734-4.891l-20.266-5.527c-3.359-.914-6.82-.398-9.766 1.441-2.945 1.846-4.922 4.742-5.562 8.156l-20.742 110.629c-.242 1.309-1.125 2.408-2.344 2.936s-2.629.41-3.75-.307c-.493-.317-44.856-28.536-78.454-28.536z" fill="#4c241d"/><path d="m123.999 205.959s-36 20-16 60c0 0 68-24 44-76" fill="#9dc1e4"/><path d="m107.999 269.959c-1.477 0-2.883-.822-3.578-2.211-21.465-42.93 17.242-65.066 17.637-65.285 1.926-1.072 4.363-.377 5.438 1.553s.379 4.363-1.547 5.438c-1.332.748-30.441 17.633-15.926 51.379 8.715-3.75 31.922-15.293 40.145-34.811 4.457-10.574 3.852-22.145-1.801-34.387-.926-2.006-.051-4.383 1.957-5.309 2.012-.924 4.383-.047 5.309 1.957 6.637 14.381 7.273 28.135 1.895 40.877-11.559 27.373-46.707 40.045-48.195 40.57-.44.155-.889.229-1.334.229z" fill="#4c241d"/><path d="m187.999 213.959s-28 12-16 48c0 0 56-20 36-60" fill="#9dc1e4"/><g fill="#4c241d"><path d="m171.999 265.959c-.602 0-1.199-.135-1.75-.404-.969-.471-1.703-1.311-2.043-2.33-13.016-39.041 17.902-52.809 18.219-52.941 2.012-.871 4.379.066 5.25 2.1.871 2.027-.066 4.375-2.09 5.248-1.039.457-22.375 10.273-15.012 38.934 7.98-3.578 25.852-13 31.785-27.807 3.121-7.783 2.469-16.197-1.938-25.01-.988-1.977-.188-4.379 1.789-5.367 1.977-.99 4.375-.189 5.367 1.789 5.477 10.957 6.219 21.586 2.195 31.592-9.055 22.537-39.152 33.508-40.43 33.965-.432.153-.889.231-1.342.231z"/><path d="m83.999 237.961c-.531 0-1.066-.105-1.582-.328-2.027-.873-2.965-3.227-2.094-5.256 3.445-7.998 4.66-15.148 3.715-21.859-.309-2.188 1.215-4.211 3.402-4.52 2.223-.318 4.211 1.217 4.52 3.402 1.156 8.207-.246 16.758-4.285 26.141-.653 1.514-2.129 2.42-3.676 2.42z"/><path d="m247.999 61.959h-12c-2.211 0-4-1.791-4-4s1.789-4 4-4h12c2.211 0 4 1.791 4 4s-1.789 4-4 4z"/><circle cx="239.999" cy="45.959" r="3.202"/></g></svg>