<svg id="dino13" enable-background="new 0 0 300 300" height="512" viewBox="0 0 300 300" width="512" xmlns="http://www.w3.org/2000/svg"><circle cx="138.406" cy="125.594" fill="#edebdc" r="90"/><path d="m91.244 119.594h-54.838s23.502-24.431 62.672-32.265h62.672s-42.241 7.834-46.158 31.336v54.838l53.992-15.668 3.917-70.506 90.091-50.921-43.087 113.593 11.751 62.672-35.253-11.751s-23.502 47.004-58.755 43.087-50.921-19.585-54.838-47.004z" fill="#c1dbdc"/><g fill="#4c241d"><path d="m142.488 248.245c-1.537 0-3.096-.084-4.682-.262-35.461-3.938-54.004-19.957-58.355-50.412-.047-.322-.053-.646-.021-.969l7.389-73.008h-50.413c-1.604 0-3.053-.957-3.68-2.434-.629-1.475-.314-3.184.797-4.34.996-1.033 24.83-25.426 64.77-33.414.26-.053.521-.078.785-.078h62.672c2.066 0 3.791 1.574 3.982 3.631.189 2.059-1.219 3.922-3.25 4.301-.395.074-39.139 7.531-42.889 27.752v49.164l46.154-13.393 3.76-67.678c.076-1.359.84-2.59 2.025-3.26l90.092-50.922c1.467-.83 3.297-.652 4.574.447 1.279 1.098 1.732 2.879 1.135 4.453l-42.689 112.543 11.543 61.568c.262 1.393-.234 2.82-1.303 3.75-1.066.934-2.547 1.23-3.895.781l-32.064-10.688c-5.834 10.304-26.455 42.466-56.437 42.468zm-55.049-51.328c3.969 26.664 19.324 39.57 51.25 43.117 32.096 3.57 54.514-40.455 54.736-40.9.889-1.781 2.953-2.631 4.844-2.006l28.803 9.602-10.498-55.992c-.135-.723-.068-1.467.191-2.154l39.164-103.25-78.555 44.402-3.797 68.322c-.094 1.695-1.248 3.146-2.879 3.619l-53.99 15.668c-1.211.348-2.512.109-3.518-.643-1.006-.756-1.598-1.941-1.598-3.199v-54.838c0-.221.018-.439.055-.658 2.131-12.793 13.701-21.299 25.111-26.678h-37.282c-24.516 4.986-42.719 16.738-52.375 24.266h44.143c1.131 0 2.209.479 2.967 1.318.76.838 1.127 1.959 1.014 3.084z"/><path d="m118.666 197.091c-1.541 0-3.01-.896-3.666-2.398-.887-2.023.037-4.383 2.061-5.268l60.389-26.422 3.492-79.99c.098-2.209 2.064-3.883 4.17-3.822 2.207.096 3.918 1.963 3.822 4.17l-3.602 82.482c-.066 1.525-.994 2.879-2.393 3.49l-62.672 27.42c-.521.228-1.066.338-1.601.338z"/><path d="m181.337 189.257c-.361 0-.73-.051-1.096-.154l-23.893-6.795c-2.125-.605-3.357-2.816-2.754-4.941.602-2.127 2.812-3.359 4.941-2.754l23.893 6.795c2.125.605 3.357 2.816 2.754 4.941-.499 1.759-2.102 2.908-3.845 2.908z"/><path d="m183.591 135.594c-.963 0-1.93-.346-2.697-1.049-1.631-1.49-1.744-4.021-.252-5.65l36.912-40.348c1.488-1.631 4.018-1.75 5.65-.252 1.631 1.49 1.744 4.021.252 5.65l-36.912 40.348c-.789.864-1.869 1.301-2.953 1.301z"/></g><path d="m128.406 231.594v20c-15.668 0-13.66 12-13.66 12h22.566c6.127 0 11.094-4.967 11.094-11.094v-24.906c8.837 0 16-7.163 16-16" fill="#c1dbdc"/><path d="m137.312 267.594h-22.566c-1.955 0-3.623-1.412-3.945-3.34-.107-.643-.934-6.406 3.094-11.164 2.422-2.859 5.947-4.615 10.512-5.238v-16.258c0-2.209 1.791-4 4-4s4 1.791 4 4v20c0 2.209-1.791 4-4 4-2.805 0-6.541.463-8.406 2.666-.355.42-.619.877-.812 1.334h18.125c3.912 0 7.094-3.182 7.094-7.094v-24.906c0-2.209 1.791-4 4-4 6.617 0 12-5.383 12-12 0-2.209 1.791-4 4-4s4 1.791 4 4c0 9.658-6.883 17.74-16 19.598v21.309c-.002 8.322-6.774 15.093-15.096 15.093z" fill="#4c241d"/><circle cx="95.592" cy="103.594" fill="#4c241d" r="4"/><path d="m99.593 123.594h-8c-2.209 0-4-1.791-4-4s1.791-4 4-4h8c2.209 0 4 1.791 4 4s-1.791 4-4 4z" fill="#4c241d"/></svg>