<svg id="dino8" enable-background="new 0 0 300 300" height="512" viewBox="0 0 300 300" width="512" xmlns="http://www.w3.org/2000/svg"><circle cx="118.015" cy="138" fill="#edebdc" r="90"/><path d="m71.382 112h-29.355c-5.854 0-11.139-3.504-13.418-8.895-1.082-2.165-.658-4.779 1.053-6.491 5.435-5.435 12.135-9.437 19.497-11.646l12.827-3.848c15.793-4.738 31.688 7.088 31.688 23.577v11.502s22.293 22.293 72.451 11.146 61.305-22.293 105.89 0c0 0-46.937-12.801-92.274 21.336-11.739 8.839-20.53 21.026-25.987 34.67l-.63 1.575c-2.139 5.348-1.078 11.446 2.742 15.757 2.673 3.017 4.149 6.909 4.149 10.939v30.078c0 3.479-2.821 6.3-6.3 6.3h-26.602l22.293-9.191v-16.719l-12.386-12.908c-5.778-6.022-9.005-14.045-9.005-22.391v-9.286l-36.117-7.825c-10.338-2.297-17.671-11.564-17.402-22.151.116-4.568.785-9.589 2.458-14.609z" fill="#a9ba5a"/><g fill="#4c241d"><path d="m153.715 252h-26.602c-1.91 0-3.555-1.35-3.922-3.223-.371-1.873.633-3.748 2.398-4.475l19.816-8.172v-12.432l-11.273-11.748c-6.523-6.801-10.117-15.736-10.117-25.16v-6.061l-32.965-7.143c-12.234-2.721-20.871-13.721-20.555-26.162.133-5.154.906-10.062 2.293-14.609l-4.48-16.815h-26.281c-7.477 0-14.188-4.449-17.102-11.336-1.746-3.48-1.023-7.943 1.91-10.877 5.883-5.885 13.203-10.258 21.176-12.65l12.828-3.848c8.746-2.623 17.973-1.004 25.301 4.451 7.332 5.453 11.535 13.82 11.535 22.957v9.664c5.055 3.984 26.609 18.188 67.582 9.08 9.707-2.158 17.98-4.324 25.281-6.236 30.637-8.027 46.023-12.055 83.266 6.562 1.836.92 2.676 3.08 1.945 5-.73 1.916-2.793 2.975-4.781 2.439-.457-.129-45.699-11.805-88.82 20.67-10.766 8.107-19.301 19.504-24.68 32.961l-.629 1.572c-1.59 3.969-.812 8.422 2.02 11.621 3.324 3.754 5.156 8.58 5.156 13.592v30.076c0 5.681-4.621 10.302-10.3 10.302zm-6.407-8h6.406c1.27 0 2.301-1.031 2.301-2.301v-30.076c0-3.055-1.117-5.998-3.145-8.287-4.852-5.477-6.18-13.102-3.461-19.896l.629-1.572c5.926-14.814 15.363-27.395 27.297-36.381 24.934-18.775 50.156-23.877 68.461-24.496-18.445-5.16-31.148-1.834-53.23 3.953-7.371 1.93-15.723 4.117-25.574 6.307-51.703 11.496-75.172-11.246-76.145-12.223-.75-.75-1.172-1.768-1.172-2.828v-11.502c0-6.582-3.027-12.609-8.309-16.539-5.281-3.926-11.914-5.092-18.23-3.205l-12.828 3.848c-6.703 2.012-12.867 5.691-17.816 10.641-.496.496-.617 1.25-.305 1.877 1.766 4.148 5.586 6.682 9.84 6.682h29.355c1.812 0 3.398 1.219 3.863 2.971l5.574 20.918c.203.756.18 1.553-.07 2.295-1.371 4.117-2.133 8.643-2.254 13.447-.223 8.625 5.781 16.256 14.27 18.143l36.098 7.82c1.84.4 3.152 2.027 3.152 3.91v9.287c0 7.35 2.801 14.318 7.891 19.621l12.387 12.908c.715.744 1.113 1.736 1.113 2.77v16.719c0 1.621-.977 3.08-2.477 3.697z"/><path d="m128.015 180c-2.211 0-4-1.791-4-4v-8c0-2.209 1.789-4 4-4s4 1.791 4 4v8c0 2.209-1.789 4-4 4z"/><path d="m71.383 114.627c-1.023 0-2.047-.391-2.828-1.172-1.562-1.562-1.562-4.094 0-5.656l5.574-5.574c1.562-1.562 4.094-1.562 5.656 0s1.562 4.094 0 5.656l-5.574 5.574c-.782.781-1.805 1.172-2.828 1.172z"/></g><path d="m84.015 152v20l-12.718 12.718c-2.101 2.101-3.282 4.951-3.282 7.923 0 4.047 3.311 7.312 7.358 7.256 3.968-.056 7.155-3.288 7.155-7.256v-3.991l12.674-11.249c3.401-3.019 5.348-7.349 5.348-11.897v-4.721" fill="#a9ba5a"/><path d="m75.269 203.896c-2.977 0-5.777-1.146-7.902-3.24-2.16-2.133-3.352-4.979-3.352-8.016 0-4.061 1.582-7.879 4.453-10.75l11.547-11.547v-18.343c0-2.209 1.789-4 4-4s4 1.791 4 4v20c0 1.061-.422 2.078-1.172 2.828l-12.719 12.719c-1.359 1.361-2.109 3.17-2.109 5.094 0 .879.344 1.701.969 2.318.633.615 1.426.926 2.336.938 1.77-.023 3.207-1.484 3.207-3.256v-3.99c0-1.145.488-2.232 1.344-2.992l12.676-11.248c2.547-2.258 4.004-5.502 4.004-8.904v-4.721c0-2.209 1.789-4 4-4s4 1.791 4 4v4.721c0 5.688-2.438 11.113-6.691 14.889l-11.332 10.055v2.191c0 6.121-4.977 11.172-11.098 11.256-.055-.002-.11-.002-.161-.002z" fill="#4c241d"/><circle cx="63.022" cy="95.12" fill="#4c241d" r="3.389"/></svg>