<svg id="dino25" enable-background="new 0 0 300 300" height="512" viewBox="0 0 300 300" width="512" xmlns="http://www.w3.org/2000/svg"><circle cx="129" cy="140" fill="#edebdc" r="90"/><path d="m111 178s0 16 24 32c2.561 5.122 7.052 9.017 12.485 10.828l3.515 1.172v12h-4c-6.627 0-12 5.373-12 12h12.644c8.481 0 15.356-6.875 15.356-15.356v-32.644s-8 0-12-16" fill="#d9be6f"/><path d="m147.644 250h-12.644c-2.209 0-4-1.791-4-4 0-8.822 7.176-16 16-16v-5.117l-.781-.26c-6.137-2.045-11.172-6.238-14.287-11.869-24.647-16.813-24.932-34.022-24.932-34.754 0-2.209 1.791-4 4-4 2.195 0 3.977 1.768 4 3.955.012.33.75 14.404 22.219 28.717.578.387 1.047.916 1.359 1.539 2.102 4.205 5.715 7.338 10.172 8.822l3.516 1.172c1.632.545 2.734 2.072 2.734 3.795v12c0 2.209-1.789 4-4 4h-4c-2.957 0-5.543 1.611-6.926 4h7.57c6.262 0 11.355-5.094 11.355-11.355v-29.645c-3.668-1.676-8.91-6.145-11.879-18.029-.539-2.145.766-4.316 2.91-4.852 2.129-.539 4.312.768 4.848 2.91 3.062 12.244 8.27 12.973 8.324 12.979 2.207 0 3.797 1.783 3.797 3.992v32.645c.001 10.671-8.683 19.355-19.355 19.355zm-32.644-72h.039z" fill="#4c241d"/><ellipse cx="147" cy="156" fill="#ffce56" rx="42" ry="36"/><path d="m147 196c-25.365 0-46-17.943-46-40s20.635-40 46-40c25.363 0 46 17.943 46 40s-20.637 40-46 40zm0-72c-20.953 0-38 14.355-38 32s17.047 32 38 32 38-14.355 38-32-17.047-32-38-32z" fill="#4c241d"/><path d="m49.581 108.422 14.332 5.274c3.257-1.086 6.812-.833 9.882.702l4.049 2.024c4.386 2.193 7.156 6.675 7.156 11.578l20 16s56-12 92 28c0 0 24 24 68 16 0 0-16 16-64 8 0 0-16 0-28 8l-20-8s-24 8-52-16c0 0-12-4-16-16 0 0-4-16-16-20 0 0-8 0-16-12l-18-14 4.11-6.165c2.281-3.422 6.611-4.834 10.471-3.413z" fill="#a9ba5a"/><path d="m173 208c-.504 0-1.008-.094-1.484-.285l-18.758-7.504c-5.949 1.426-28.344 4.805-53.82-16.713-3.039-1.215-13.736-6.246-17.732-18.232-.117-.42-3.627-13.807-13.027-17.314-2.629-.273-10.494-2.043-18.135-13.184l-17.498-13.609c-1.654-1.287-2.035-3.633-.873-5.377l4.109-6.164c3.32-4.98 9.559-7.018 15.182-4.949l13.111 4.824c3.873-.93 7.904-.475 11.51 1.328l4.049 2.023c5.17 2.586 8.586 7.506 9.25 13.139l17.184 13.748c10.459-1.799 60.129-7.939 93.906 29.594.777.758 23.086 22.232 64.312 14.74 1.723-.318 3.449.531 4.258 2.08.812 1.549.523 3.447-.715 4.684-.711.711-17.953 17.289-67.121 9.178-2.164.059-15.531.686-25.488 7.322-.67.444-1.443.671-2.22.671zm-20-16c.504 0 1.008.096 1.484.285l18.113 7.246c12.559-7.441 27.731-7.531 28.403-7.531.219 0 .441.018.656.055 16.238 2.703 28.637 2.561 37.859 1.277-28.867-2.406-44.523-17.684-45.344-18.504-34.125-37.904-87.799-27.029-88.338-26.916-1.168.254-2.395-.039-3.332-.789l-20-16c-.949-.758-1.501-1.908-1.501-3.123 0-3.41-1.895-6.475-4.945-8l-4.049-2.023c-2.137-1.068-4.562-1.244-6.826-.486-.861.285-1.797.271-2.646-.041l-14.332-5.273c-2.135-.783-4.502-.014-5.764 1.879l-2.047 3.07 15.064 11.717c.34.266.635.582.873.939 6.518 9.775 12.521 10.207 12.773 10.221.357.02.824.09 1.164.203 13.922 4.641 18.43 22.084 18.615 22.824 3.242 9.693 13.283 13.143 13.385 13.176.49.164.945.422 1.338.758 25.984 22.273 47.92 15.318 48.131 15.242.41-.138.84-.206 1.266-.206z" fill="#4c241d"/><path d="m139 178s0 16 24 32c2.561 5.122 7.052 9.017 12.485 10.828l3.515 1.172v12h-4c-6.627 0-12 5.373-12 12h14.112c7.67 0 13.888-6.218 13.888-13.888v-18.112s-10.523 1.15-15.262-13.425c0 0 7.262-2.575 3.262-18.575" fill="#a9ba5a"/><path d="m177.113 250h-14.113c-2.211 0-4-1.791-4-4 0-8.822 7.176-16 16-16v-5.117l-.781-.26c-6.137-2.045-11.172-6.238-14.289-11.869-24.645-16.813-24.93-34.022-24.93-34.754 0-2.209 1.789-4 4-4 2.195 0 3.977 1.768 4 3.955.012.33.75 14.404 22.219 28.717.578.387 1.047.916 1.359 1.539 2.102 4.205 5.715 7.338 10.172 8.822l3.516 1.172c1.632.545 2.734 2.072 2.734 3.795v12c0 2.209-1.789 4-4 4h-4c-2.957 0-5.543 1.611-6.926 4h9.039c5.453 0 9.887-4.436 9.887-9.889v-14.5c-4.527-1.02-11.387-4.484-15.066-15.801-.668-2.062.426-4.281 2.469-5.006.848-.488 3.141-4.135.719-13.834-.539-2.145.766-4.316 2.91-4.852 2.129-.539 4.312.768 4.848 2.91 3.012 12.033.309 18.023-2.348 20.896 3.859 8.666 9.969 8.107 10.035 8.098 1.121-.133 2.258.24 3.105.998.844.76 1.328 1.842 1.328 2.979v18.111c0 9.865-8.024 17.89-17.887 17.89zm-34.113-72h.039z" fill="#4c241d"/><path d="m107.949 178-9.926 14.544c-3.367 4.933-10.371 5.63-14.644 1.456l-16.379 16v-18.286c0-5.365 4.452-9.714 9.945-9.714h14.625v-7.132c0-9.316 7.731-16.868 17.269-16.868h3.206" fill="#a9ba5a"/><g fill="#4c241d"><path d="m67 214c-.523 0-1.051-.102-1.553-.314-1.482-.624-2.447-2.077-2.447-3.686v-18.285c0-7.563 6.256-13.715 13.945-13.715h10.625v-3.131c0-11.508 9.541-20.869 21.268-20.869h3.207c2.209 0 4 1.791 4 4s-1.791 4-4 4h-3.207c-7.316 0-13.268 5.773-13.268 12.869v7.131c0 2.209-1.791 4-4 4h-14.625c-3.277 0-5.945 2.564-5.945 5.715v8.785l9.584-9.361c1.555-1.52 4.035-1.52 5.59 0 1.189 1.16 2.812 1.725 4.471 1.568 1.652-.164 3.139-1.047 4.074-2.42l9.926-14.543c1.248-1.822 3.732-2.291 5.561-1.049 1.824 1.246 2.293 3.734 1.049 5.561l-9.926 14.543c-2.273 3.33-5.879 5.469-9.891 5.869-2.684.271-5.322-.262-7.646-1.479l-13.996 13.672c-.763.744-1.773 1.139-2.796 1.139z"/><circle cx="63" cy="126" r="2.637"/><path d="m148.586 147.998c-.402 0-.816-.062-1.223-.193-2.102-.674-3.262-2.928-2.586-5.031l7.137-22.248c.672-2.1 2.918-3.266 5.031-2.586 2.102.674 3.262 2.928 2.586 5.031l-7.137 22.248c-.543 1.697-2.117 2.779-3.808 2.779z"/><path d="m161.601 150.094c-1.148 0-2.285-.49-3.078-1.439-1.414-1.697-1.184-4.219.512-5.633l15.109-12.592c1.703-1.414 4.219-1.184 5.637.512 1.414 1.697 1.184 4.219-.512 5.633l-15.109 12.592c-.75.622-1.656.927-2.559.927z"/><path d="m134.998 146.002c-1.771 0-3.391-1.186-3.865-2.98l-4.465-16.893c-.564-2.135.709-4.324 2.846-4.889 2.127-.561 4.32.705 4.889 2.846l4.465 16.893c.566 2.135-.711 4.324-2.844 4.889-.345.089-.688.134-1.026.134z"/></g></svg>