<svg id="dino11" enable-background="new 0 0 300 300" height="512" viewBox="0 0 300 300" width="512" xmlns="http://www.w3.org/2000/svg"><circle cx="171.999" cy="124" fill="#edebdc" r="90"/><path d="m80.622 82.514s15.781 15.781 71.016 0 71.016 55.235 71.016 102.579c0 0-110.47-47.344-142.032-102.579z" fill="#c1dbdc"/><path d="m222.655 189.094c-.535 0-1.07-.107-1.576-.324-4.561-1.953-112.068-48.514-143.93-104.271-.994-1.74-.547-3.947 1.045-5.164 1.574-1.201 3.789-1.068 5.205.303.367.328 16.027 13.633 67.139-.969 16.398-4.682 30.727-2.518 42.6 6.434 24.713 18.643 33.518 63.875 33.518 99.992 0 1.344-.676 2.6-1.799 3.34-.663.436-1.431.659-2.202.659zm-131.063-97.446c32.334 41.74 105.98 77.574 126.969 87.223-.953-31.791-9.246-71.545-30.242-87.383-9.756-7.359-21.729-9.086-35.582-5.129-30.686 8.768-49.867 7.981-61.145 5.289z" fill="#4c241d"/><path d="m37.701 91.879 19.248 6.416s7.891 7.891 15.781 31.563c7.059 21.177 45.692 48.668 82.004 54.229 9.675 1.482 18.685 5.806 26.328 11.921l11.563 9.25c16.168 12.934 35.978 21.005 56.678 21.475 6.668.152 13.682-.433 20.696-2.186 0 0-31.563-15.781-47.344-47.344-14.572-29.144-42.599-71.743-102.718-71.889-9.982-.024-19.038-5.918-23.502-14.847l-.031-.062-3.034-18.203c-2.332-13.993-18.026-21.24-30.19-13.941l-14.12 8.472-11.357 3.786c-6.5 2.167-9.573 9.587-6.509 15.715 1.333 2.67 3.675 4.701 6.507 5.645z" fill="#d9be6f"/><path d="m251.305 230.756c-.695 0-1.393-.008-2.094-.025-20.672-.469-41.656-8.406-59.084-22.35l-11.562-9.25c-7.432-5.945-15.881-9.779-24.436-11.09-35.871-5.494-77.273-33.156-85.193-56.918-6.229-18.688-12.438-27.143-14.273-29.373l-18.227-6.076c-3.863-1.287-6.996-4.004-8.822-7.65-1.979-3.959-2.143-8.574-.449-12.662 1.693-4.09 5.072-7.238 9.271-8.639l10.941-3.646 13.743-8.247c6.848-4.113 15.266-4.568 22.518-1.215 7.252 3.348 12.365 10.051 13.678 17.928l2.93 17.586c3.945 7.424 11.605 12.164 19.701 12.184 69.32.168 97.145 55.816 106.287 74.102 14.967 29.936 45.254 45.404 45.557 45.557 1.496.75 2.367 2.354 2.184 4.016s-1.381 3.035-3.004 3.441c-6.187 1.546-12.793 2.327-19.666 2.327zm-177.805-171.393c-2.854 0-5.688.781-8.264 2.326l-14.119 8.473c-.25.15-.518.273-.793.365l-11.357 3.785c-1.998.666-3.607 2.164-4.412 4.109s-.727 4.139.215 6.021c.867 1.736 2.357 3.029 4.195 3.641h.002l19.248 6.417c.588.197 1.123.527 1.562.967.35.35 8.652 8.838 16.748 33.125 6.279 18.84 42.836 46.031 78.814 51.543 9.938 1.52 19.697 5.93 28.223 12.75l11.561 9.25c16.068 12.854 35.342 20.168 54.271 20.6 3.162.068 6.26-.033 9.275-.318-10.945-7.322-28.734-21.707-39.594-43.424-23.391-46.781-55.822-69.574-99.15-69.68-11.275-.027-21.9-6.721-27.07-17.057-.178-.357-.334-.801-.398-1.193l-3.033-18.203c-.891-5.344-4.223-9.711-9.141-11.982-2.189-1.011-4.492-1.515-6.783-1.515z" fill="#4c241d"/><path d="m112.184 153.53-63.126 23.672c0-13.955 9.392-26.163 22.881-29.741l11.919-3.161s-3.237-14.442 12.545-30.223" fill="#d9be6f"/><path d="m49.059 181.203c-.803 0-1.6-.242-2.279-.713-1.078-.746-1.721-1.975-1.721-3.287 0-15.75 10.633-29.57 25.855-33.609l8.678-2.301c-.068-5.896 1.641-17.703 13.982-30.045 1.562-1.562 4.094-1.562 5.656 0s1.562 4.094 0 5.656c-13.855 13.855-11.566 26.045-11.461 26.557.422 2.076-.84 4.16-2.887 4.705l-11.918 3.162c-9.727 2.578-17.02 10.346-19.219 19.846l57.033-21.391c2.07-.766 4.373.273 5.15 2.342.775 2.068-.273 4.373-2.342 5.15l-63.125 23.674c-.453.17-.929.254-1.402.254z" fill="#4c241d"/><path d="m143.747 145.639s-31.563 23.272-7.891 62.059c0 0 15.781 31.03-7.891 38.787 0 0-7.891 7.757-7.891 15.515h39.454l7.891-23.272s-24.961-34.562-5.421-69.14" fill="#d9be6f"/><g fill="#4c241d"><path d="m159.528 266h-39.453c-2.209 0-4-1.791-4-4 0-9.17 8.156-17.453 9.086-18.367.439-.434.973-.758 1.559-.949 4.561-1.494 7.52-4.012 9.049-7.697 4.188-10.1-3.402-25.326-3.48-25.479-25.135-41.16 8.74-66.834 9.086-67.088 1.773-1.316 4.281-.934 5.592.846 1.311 1.775.934 4.275-.84 5.588-1.213.908-28.242 21.721-6.855 56.762.535 1.025 9.482 18.896 3.896 32.412-2.318 5.613-6.686 9.621-12.984 11.922-1.512 1.643-3.957 4.77-5.248 8.051h31.727l6.334-18.684c-4.982-7.762-22.727-39.402-4.479-71.697 1.09-1.918 3.525-2.598 5.451-1.514 1.922 1.086 2.6 3.527 1.514 5.451-18.068 31.977 4.945 64.506 5.18 64.83.758 1.049.961 2.4.547 3.627l-7.891 23.271c-.553 1.623-2.076 2.715-3.791 2.715z"/><circle cx="65.999" cy="74" r="4"/></g></svg>