<svg id="dino29" enable-background="new 0 0 300 300" height="512" viewBox="0 0 300 300" width="512" xmlns="http://www.w3.org/2000/svg"><circle cx="173" cy="132" fill="#edebdc" r="90"/><path d="m117.004 168.7s-1.181 41.114 33.105 53.3v16c-6.26 0-11.334 5.373-11.334 12v4h30.225v-84" fill="#ffce56"/><path d="m169 258h-30.223c-2.211 0-4-1.791-4-4v-4c0-7.379 4.812-13.607 11.332-15.447v-9.811c-13.84-5.779-23.906-17.023-29.199-32.682-4.172-12.338-3.918-23.027-3.906-23.477.062-2.207 1.949-3.902 4.109-3.881 2.207.061 3.945 1.898 3.891 4.105-.043 1.561-.629 38.379 30.445 49.422 1.594.566 2.66 2.076 2.66 3.77v16c0 2.209-1.789 4-4 4-4.043 0-7.332 3.588-7.332 8h22.223v-80c0-2.209 1.789-4 4-4s4 1.791 4 4v84c0 2.21-1.789 4.001-4 4.001z" fill="#4c241d"/><path d="m137.9 138.45s42.35-24.2 6.05-54.45c0 0-42.35 18.15-6.05 54.45z" fill="#ffce56"/><path d="m137.898 142.449c-1.035 0-2.059-.4-2.828-1.172-12.379-12.381-17.563-24.35-15.398-35.576 3.246-16.861 21.91-25.037 22.703-25.377 1.379-.592 2.977-.359 4.137.604 11.574 9.645 16.969 19.896 16.039 30.473-1.609 18.291-21.809 30.031-22.668 30.521-.622.355-1.305.527-1.985.527zm5.453-53.674c-4.371 2.402-13.969 8.699-15.832 18.475-1.488 7.816 2.199 16.566 10.969 26.045 4.902-3.441 15.164-11.865 16.094-22.623.629-7.236-3.149-14.596-11.231-21.897z" fill="#4c241d"/><path d="m117.934 141.031s19.913-39.753-22.972-49.654c0 .001-22.976 34.536 22.972 49.654z" fill="#ffce56"/><path d="m117.933 145.031c-.414 0-.836-.064-1.25-.201-16.023-5.271-26.062-13.482-29.84-24.402-5.414-15.654 4.367-30.637 4.785-31.266.922-1.387 2.605-2.062 4.23-1.684 13.832 3.193 23.141 9.695 27.668 19.322 7.676 16.311-1.617 35.225-2.016 36.021-.694 1.386-2.096 2.21-3.577 2.21zm-20.988-49.015c-2.09 4.178-5.566 13.123-2.523 21.85 2.672 7.66 9.82 13.748 21.277 18.129 1.977-5.391 4.977-16.506.574-25.822-3.137-6.64-9.633-11.394-19.328-14.157z" fill="#4c241d"/><path d="m149.962 149.747s44.461-.139 33.973-42.884c-.001-.001-41.185-4.947-33.973 42.884z" fill="#ffce56"/><path d="m149.961 153.746c-1.977 0-3.66-1.447-3.957-3.404-2.512-16.682.293-29.344 8.34-37.637 11.535-11.889 29.316-9.902 30.066-9.812 1.652.197 3.012 1.4 3.406 3.018 3.383 13.783 1.777 25.021-4.777 33.402-11.102 14.203-32.176 14.432-33.066 14.434-.005-.001-.009-.001-.012-.001zm30.726-43.021c-4.672.018-14.223.941-20.645 7.592-5.633 5.836-7.844 14.965-6.594 27.164 5.703-.666 16.98-2.996 23.312-11.125 4.513-5.794 5.829-13.731 3.927-23.631z" fill="#4c241d"/><path d="m176.669 161.054s35.979-.112 27.492-34.703c0-.001-33.328-4.004-27.492 34.703z" fill="#ffce56"/><path d="m176.668 165.053c-1.977 0-3.66-1.447-3.957-3.404-2.07-13.746.27-24.211 6.953-31.102 9.594-9.891 24.344-8.242 24.973-8.168 1.652.197 3.012 1.4 3.406 3.018 2.797 11.393 1.449 20.707-4.004 27.684-9.211 11.781-26.621 11.971-27.359 11.973-.005-.001-.009-.001-.012-.001zm24.23-34.807c-3.832.096-10.801 1.004-15.527 5.91-4.273 4.432-6.016 11.35-5.195 20.59 4.68-.637 12.895-2.6 17.582-8.623 3.413-4.383 4.464-10.387 3.14-17.877z" fill="#4c241d"/><path d="m197.772 181.179s35.498-5.867 21.586-38.654c0 0-33.539 1.38-21.586 38.654z" fill="#ffce56"/><path d="m197.769 185.18c-1.711 0-3.266-1.102-3.805-2.779-4.246-13.238-3.609-23.943 1.887-31.814 7.891-11.295 22.715-12.031 23.344-12.057 1.711-.066 3.199.902 3.848 2.434 4.582 10.799 4.738 20.209.473 27.969-7.207 13.102-24.363 16.074-25.09 16.195-.219.034-.438.052-.657.052zm18.992-38.287c-3.77.707-10.5 2.719-14.383 8.318-3.508 5.059-4.121 12.164-1.832 21.156 4.52-1.379 12.312-4.629 15.977-11.324 2.664-4.873 2.742-10.969.238-18.15z" fill="#4c241d"/><path d="m225.857 188.946s33.264-12.574 13.419-41.65c0 0-32.235 7.846-13.419 41.65z" fill="#ffce56"/><path d="m225.859 192.945c-1.414 0-2.77-.754-3.496-2.055-6.691-12.02-8.152-22.529-4.348-31.238 5.461-12.498 19.711-16.096 20.316-16.242 1.617-.398 3.312.258 4.25 1.631 6.543 9.59 8.527 18.691 5.891 27.053-4.449 14.117-20.516 20.336-21.199 20.594-.465.173-.941.257-1.414.257zm11.73-40.853c-3.516 1.422-9.605 4.67-12.266 10.814-2.406 5.559-1.629 12.535 2.309 20.773 4.109-2.219 10.984-6.867 13.223-14.025 1.629-5.216.531-11.115-3.266-17.562z" fill="#4c241d"/><path d="m93.734 159.181s19.913-39.753-22.972-49.654c0 .001-22.976 34.536 22.972 49.654z" fill="#ffce56"/><path d="m93.734 163.182c-.414 0-.836-.064-1.25-.201-16.027-5.271-26.066-13.482-29.844-24.404-5.414-15.654 4.371-30.635 4.789-31.264.926-1.387 2.613-2.062 4.23-1.684 13.832 3.193 23.141 9.693 27.668 19.32 7.676 16.312-1.617 35.227-2.016 36.023-.694 1.385-2.097 2.21-3.577 2.21zm-20.988-49.016c-2.09 4.176-5.57 13.121-2.527 21.848 2.672 7.66 9.824 13.75 21.281 18.131 1.977-5.391 4.977-16.508.574-25.824-3.137-6.639-9.633-11.391-19.328-14.155z" fill="#4c241d"/><path d="m77.4 132.4h-12.1l-8.577-5.718c-5.797-3.864-13.348-3.864-19.145 0l-.604.402c-4.982 3.321-7.974 8.912-7.974 14.899 0 51.073 47.317 90.493 96.989 78.614 13.045-3.12 24.011-8.035 30.061-15.598l42.35-12.1s60.5 18.15 72.6-36.3c0 0-23.528 35.553-90.75-24.2-54.45-48.399-102.85.001-102.85.001z" fill="#fc8c29"/><path d="m108.132 226.709c-18.098.002-35.859-6.123-50.633-17.777-20.652-16.299-32.499-40.702-32.499-66.95 0-7.342 3.645-14.154 9.754-18.227l.609-.406c7.16-4.773 16.418-4.773 23.578.004l7.57 5.047h9.262c18.461-17.463 62.832-38.371 107.133 1.01 34.133 30.338 55.938 34.908 68.238 33.439 11.535-1.398 16.34-8.199 16.539-8.486 1.086-1.576 3.145-2.176 4.902-1.416 1.758.766 2.734 2.65 2.32 4.52-3.566 16.035-11.469 27.74-23.496 34.793-20.836 12.217-47.102 6.346-52.996 4.795l-40.086 11.455c-6.227 7.109-16.781 12.48-31.41 15.979-6.226 1.488-12.527 2.22-18.785 2.22zm-60.984-98.934c-2.559 0-5.117.744-7.352 2.234l-.609.406c-3.871 2.58-6.188 6.906-6.188 11.566 0 23.785 10.738 45.896 29.457 60.668 17.941 14.156 40.77 19.281 62.602 14.057 13.539-3.236 22.918-8.016 27.867-14.205.52-.648 1.227-1.119 2.027-1.348l42.348-12.1c.727-.211 1.516-.203 2.242.014.277.08 27.773 8.068 47.855-3.73 6.824-4.01 12.074-9.912 15.695-17.621-2.914 1.354-6.434 2.482-10.617 3.027-20.352 2.66-45.516-9.248-74.883-35.354-51.047-45.381-95.5-2.029-97.367-.162-.75.75-1.766 1.172-2.828 1.172h-12.097c-.789 0-1.562-.234-2.219-.672l-8.578-5.719c-2.234-1.487-4.792-2.233-7.355-2.233z" fill="#4c241d"/><path d="m145.005 168.7s-1.271 41.114 35.652 53.3v16c-6.741 0-12.206 5.373-12.206 12v4h22.472c5.565 0 10.077-4.435 10.077-9.907v-74.093" fill="#fc8c29"/><path d="m190.921 258h-22.473c-2.211 0-4-1.791-4-4v-4c0-7.461 5.199-13.744 12.207-15.508v-9.674c-36.516-14.059-35.664-55.812-35.652-56.242.07-2.166 1.844-3.873 3.996-3.873.043 0 .082 0 .121.002 2.203.064 3.941 1.904 3.883 4.111-.043 1.559-.664 38.307 32.906 49.385 1.641.541 2.746 2.072 2.746 3.799v16c0 2.209-1.789 4-4 4-4.523 0-8.207 3.588-8.207 8h18.473c3.352 0 6.078-2.65 6.078-5.906v-74.094c0-2.209 1.789-4 4-4s4 1.791 4 4v74.094c.001 7.668-6.316 13.906-14.078 13.906z" fill="#4c241d"/><path d="m61 168.7s0 18.279 24.338 24.371v48.743h-1.137c-6.068 0-11.032 4.936-11.032 10.97v1.216h21.867c5.503 0 9.964-4.435 9.964-9.907v-44.929" fill="#fc8c29"/><path d="m95.035 258h-21.867c-2.211 0-4-1.791-4-4v-1.217c0-7.279 5.246-13.361 12.172-14.697v-41.988c-19.161-6.037-24.34-20.354-24.34-27.399 0-2.209 1.789-4 4-4 2.199 0 3.984 1.775 4 3.971.012.693.562 15.326 21.312 20.521 1.777.445 3.027 2.045 3.027 3.881v48.742c0 2.209-1.789 4-4 4h-1.137c-2.883 0-5.363 1.725-6.449 4.186h17.281c3.289 0 5.965-2.65 5.965-5.906v-44.93c0-2.209 1.789-4 4-4s4 1.791 4 4v44.93c.001 7.668-6.265 13.906-13.964 13.906zm-30.035-89.301h.039z" fill="#4c241d"/><path d="m75 134-.518 4.596c-.475 4.217-4.042 7.404-8.285 7.404h-12.997" fill="#fc8c29"/><g fill="#4c241d"><path d="m66.195 150h-12.996c-2.211 0-4-1.791-4-4s1.789-4 4-4h12.996c2.211 0 4.062-1.654 4.309-3.85l.52-4.6c.254-2.195 2.199-3.803 4.426-3.525 2.195.248 3.773 2.229 3.527 4.424l-.52 4.596c-.704 6.244-5.973 10.955-12.262 10.955z"/><circle cx="47" cy="136" r="2"/></g></svg>