<svg id="dino26" enable-background="new 0 0 300 300" height="512" viewBox="0 0 300 300" width="512" xmlns="http://www.w3.org/2000/svg"><circle cx="150.772" cy="124" fill="#edebdc" r="90"/><path d="m133.707 177.437s4.872 14.615 0 34.102l14.615 9.743s0 29.23-19.487 48.717h-24.359c0-6.627 5.373-12 12-12h7.487s14.615-12.359 9.743-26.974c0 0-24.359-9.743-34.102-24.359s-14.615-43.846-14.615-43.846" fill="#a9ba5a"/><path d="m128.835 274h-24.359c-2.211 0-4-1.791-4-4 0-8.822 7.176-16 16-16h5.906c2.719-2.713 9.91-10.91 7.98-20.047-6.086-2.67-25.285-11.863-34.086-25.066-10.102-15.156-15.027-44.18-15.23-45.406-.363-2.18 1.109-4.24 3.289-4.604 2.184-.359 4.234 1.109 4.602 3.287.047.283 4.848 28.562 13.996 42.285 8.926 13.393 32.027 22.77 32.262 22.863 1.09.438 1.934 1.334 2.305 2.447 5.664 16.99-10.27 30.719-10.953 31.295-.723.609-1.637.945-2.582.945h-7.488c-2.957 0-5.543 1.611-6.926 4h17.59c14.199-15.131 16.668-36.035 17.094-42.635l-12.746-8.498c-1.406-.938-2.07-2.658-1.66-4.299 4.535-18.146.129-31.73.086-31.865-.699-2.096.434-4.361 2.527-5.061 2.109-.709 4.359.436 5.059 2.529.207.613 4.738 14.586.727 33.572l12.316 8.211c1.113.742 1.781 1.99 1.781 3.328 0 1.262-.234 31.123-20.66 51.545-.752.752-1.768 1.174-2.83 1.174z" fill="#4c241d"/><path d="m84.989 55.643s9.744 0 19.487-4.872l9.815 3.272c2.754.918 5.764-.329 7.063-2.926 1.441-2.882.273-6.386-2.609-7.827l-14.269-7.135s-2.165-4.33-7.939-5.774c-5.798-1.45-11.845 1.348-15.16 6.321l-6.131 9.198s-29.231 29.231-9.743 87.692c0 0-14.615 24.359 24.359 48.717 0 0 14.615 29.231 68.205 9.744 0 0 58.461 14.615 87.692 4.872 0 0-53.589-14.615-92.563-43.846-22.008-16.506-39.356-19.031-50.289-18.101-10.049.854-19.414-5.09-22.923-14.544-5.454-14.691-8.672-37.437 5.005-64.791z" fill="#a9ba5a"/><path d="m219.585 204.278c-26.098.002-54.969-6.541-61.297-8.055-50.199 17.803-68.023-5.566-71.402-11.061-16.688-10.635-26.031-22.68-27.785-35.818-1-7.5.895-13.289 2.098-16.047-18.219-56.592 7.605-86.398 10.918-89.914l5.934-8.898c4.387-6.588 12.199-9.799 19.461-7.982 5.449 1.363 8.449 4.699 9.758 6.58l13.266 6.631c2.348 1.174 4.102 3.193 4.934 5.686.828 2.492.641 5.16-.535 7.508-2.176 4.352-7.289 6.465-11.906 4.932l-8.285-2.762c-6.953 3.16-13.648 4.133-17.184 4.434-11.957 25.348-8.738 46.291-3.824 59.529 2.867 7.734 10.621 12.654 18.832 11.951 11.414-.965 29.871 1.52 53.027 18.889 37.887 28.414 90.688 43.041 91.219 43.186 1.699.465 2.895 1.986 2.945 3.748.047 1.762-1.062 3.35-2.734 3.906-7.776 2.59-17.409 3.557-27.44 3.557zm-61.52-16.225c.324 0 .652.039.969.119.484.119 40.875 10.104 70.281 7.758-18.957-6.525-51.855-19.652-78.52-39.652-21.145-15.855-37.535-18.168-47.551-17.314-11.824.969-22.895-6.049-27.012-17.141-5.602-15.082-9.246-39.119 5.18-67.969.676-1.352 2.059-2.207 3.57-2.211.09 0 8.984-.09 17.703-4.449.953-.471 2.043-.551 3.055-.217l9.816 3.271c.855.291 1.812-.105 2.219-.918.297-.594.191-1.133.102-1.402-.09-.268-.328-.764-.918-1.059l-14.273-7.135c-.773-.387-1.402-1.016-1.789-1.789-.031-.055-1.527-2.732-5.328-3.682-3.996-.99-8.344.877-10.863 4.656l-6.133 9.199c-.145.219-.312.424-.5.609-.059.059-6.891 7.102-11.363 20.818-4.137 12.689-7.047 33.881 2.586 62.779.371 1.109.238 2.322-.363 3.324-.484.838-11.848 21.455 23.051 43.266.625.391 1.129.945 1.457 1.604.539 1.031 14.039 25.674 63.258 7.773.44-.158.901-.238 1.366-.238z" fill="#4c241d"/><path d="m158.065 177.437s4.872 14.615 0 34.102l14.615 9.743s0 29.23-19.487 48.717h-24.359c0-6.627 5.373-12 12-12h7.487s14.615-12.359 9.744-26.974c0 0-24.359-9.743-34.102-24.359s-14.615-43.846-14.615-43.846" fill="#a9ba5a"/><path d="m153.194 274h-24.359c-2.211 0-4-1.791-4-4 0-8.822 7.176-16 16-16h5.906c2.719-2.713 9.91-10.91 7.98-20.047-6.086-2.67-25.285-11.863-34.086-25.066-10.102-15.154-15.031-44.178-15.234-45.406-.363-2.18 1.109-4.24 3.285-4.604 2.18-.359 4.238 1.107 4.605 3.287.047.283 4.852 28.562 14 42.285 8.926 13.393 32.027 22.77 32.262 22.863 1.09.438 1.934 1.334 2.305 2.447 5.664 16.99-10.27 30.719-10.953 31.295-.723.609-1.637.945-2.582.945h-7.488c-2.957 0-5.543 1.611-6.926 4h17.59c14.199-15.131 16.668-36.035 17.094-42.635l-12.746-8.498c-1.406-.938-2.07-2.658-1.66-4.299 4.535-18.146.129-31.73.086-31.865-.699-2.096.434-4.361 2.527-5.061 2.113-.709 4.359.436 5.059 2.529.207.613 4.738 14.586.727 33.572l12.316 8.211c1.113.742 1.781 1.99 1.781 3.328 0 1.262-.234 31.123-20.66 51.545-.751.752-1.766 1.174-2.829 1.174z" fill="#4c241d"/><path d="m94.733 177.437c0 19.487-14.615 29.231-14.615 29.231l-14.615-4.872-4.872 14.615s-14.473-16.667.142-26.411l16 4s-1.527-36.05 8.217-40.922" fill="#a9ba5a"/><g fill="#4c241d"><path d="m60.632 220.41c-1.145 0-2.25-.492-3.02-1.377-.352-.404-8.578-10.01-7.219-20.107.668-4.967 3.414-9.09 8.16-12.254.938-.625 2.09-.826 3.188-.553l10.902 2.725c-.105-12.174 1.039-34.586 10.559-39.344 1.973-.988 4.383-.186 5.367 1.789.988 1.977.188 4.379-1.789 5.367-4.445 2.221-6.695 21.014-6.012 37.174.055 1.262-.492 2.473-1.469 3.27-.98.795-2.277 1.082-3.496.781l-14.168-3.541c-1.93 1.623-3.016 3.477-3.312 5.631-.312 2.299.293 4.781 1.227 7.031l2.16-6.473c.332-1.006 1.055-1.838 2.004-2.312.953-.473 2.047-.553 3.055-.217l12.594 4.199c3.379-2.861 11.371-11.08 11.371-24.762 0-2.209 1.789-4 4-4s4 1.791 4 4c0 21.381-15.73 32.113-16.398 32.559-1.023.688-2.309.857-3.484.467l-10.816-3.607-3.609 10.82c-.453 1.361-1.602 2.377-3.012 2.656-.26.053-.526.078-.783.078z"/><circle cx="94.772" cy="40" r="2"/></g></svg>