<svg id="dino12" enable-background="new 0 0 300 300" height="512" viewBox="0 0 300 300" width="512" xmlns="http://www.w3.org/2000/svg"><circle cx="175.166" cy="142" fill="#edebdc" r="90"/><path d="m123.041 176.507c4.019 11.626 2.46 23.295-5.875 35.017l-8 10.683v3.793c0 3.314-2.686 6-6 6-3.314 0-6-2.686-6-6v-1.213c0-3.785 1.275-7.46 3.619-10.432l4.106-5.205s-3.025-35.907 3.025-45.7" fill="#d9be6f"/><path d="m103.166 236c-5.514 0-10-4.486-10-10v-1.213c0-4.664 1.59-9.248 4.479-12.91l3.137-3.975c-.576-7.781-2.268-36.846 3.732-46.555 1.162-1.881 3.627-2.467 5.504-1.301 1.881 1.16 2.463 3.625 1.301 5.504-3.902 6.316-3.568 29.889-2.441 43.264.084 1.012-.217 2.016-.846 2.812l-4.105 5.205c-1.779 2.256-2.76 5.082-2.76 7.955v1.214c0 1.104.896 2 2 2s2-.896 2-2v-3.793c0-.865.279-1.705.799-2.398l8-10.684c7.279-10.238 9.031-20.506 5.295-31.311-.721-2.088.387-4.365 2.475-5.088 2.076-.715 4.365.383 5.088 2.475 4.576 13.236 2.424 26.238-6.396 38.641l-7.26 9.697v2.461c-.002 5.514-4.488 10-10.002 10z" fill="#4c241d"/><path d="m151.341 199.65s-4 14.411 11.125 25.939l6.05 8.646-6.05 5.764h13.075c3.479-3.315 4.014-8.674 1.259-12.611l-7.634-11.388v-12" fill="#d9be6f"/><path d="m175.541 244h-13.074c-1.635 0-3.105-.996-3.713-2.514-.609-1.52-.23-3.254.953-4.383l3.561-3.391-3.73-5.332c-16.492-12.957-12.24-29.113-12.049-29.801.59-2.125 2.799-3.375 4.924-2.783 2.119.588 3.365 2.777 2.791 4.896-.145.566-2.912 12.109 9.689 21.715.328.25.615.551.852.889l6.049 8.646c.855 1.223.939 2.781.314 4.057h1.58c1.207-1.91 1.189-4.385-.164-6.318l-7.68-11.455c-.441-.658-.678-1.434-.678-2.227v-12c0-2.209 1.791-4 4-4s4 1.791 4 4v10.783l6.957 10.379c3.873 5.533 3.125 13.02-1.822 17.734-.745.71-1.733 1.105-2.76 1.105z" fill="#4c241d"/><path d="m73.834 151.742s15.481 48.744 65.407 60.501l5.925-32.243z" fill="#d9be6f"/><path d="m139.24 216.244c-.307 0-.613-.035-.916-.107-51.541-12.137-67.643-61.106-68.303-63.184-.467-1.473-.045-3.082 1.084-4.137 1.133-1.053 2.771-1.357 4.201-.793l71.332 28.258c1.775.703 2.807 2.564 2.461 4.441l-5.926 32.244c-.197 1.078-.828 2.027-1.746 2.625-.656.43-1.415.653-2.187.653zm-58.002-57.267c6.578 13.43 22.914 39.062 54.848 48.307l4.553-24.775z" fill="#4c241d"/><path d="m29.166 136 16-4s12-16 20 8c6.05 18.15 24.5 33.4 51.725 39.45 0 0 6.05 54.45 75.625 30.25 0 0 6.05-3.025 24.2 6.05s30.25 12.1 54.45 15.125c0 0-36.3-3.025-63.525-33.275s-63.525-36.3-90.75-39.325c0 0-33.275-9.075-45.375-36.3-5.468-12.302-17.484-15.464-26.646-14.991-19.704 1.016-15.704 29.016-15.704 29.016z" fill="#a9ba5a"/><path d="m271.17 234.875c-.111 0-.223-.004-.336-.014-.25-.021-1.42-.127-3.32-.422-23.717-3.115-35.436-6.537-52.586-15.111-15.291-7.646-20.836-5.951-20.887-5.936-25.531 8.893-45.812 8.658-60.504-.609-14.289-9.012-18.818-23.838-20.133-30.045-26.146-6.5-45.498-21.871-52.033-41.473-2.051-6.156-4.67-10.064-7.002-10.455-2.174-.34-4.992 2.271-6.016 3.605-.549.719-1.34 1.244-2.217 1.465l-16 4c-1.104.271-2.264.068-3.203-.561-.939-.633-1.566-1.633-1.727-2.754-.102-.701-2.357-17.248 5.564-26.873 3.416-4.148 8.09-6.404 13.895-6.703 13.896-.756 25.354 5.768 30.506 17.359 10.639 23.941 39.389 33.064 42.5 33.988 32.627 3.65 66.441 11.141 92.941 40.586 22.057 24.506 50.516 30.439 58.637 31.674.791.104 1.594.205 2.412.309 2.16.27 3.707 2.217 3.482 4.383-.212 2.054-1.946 3.587-3.973 3.587zm-217.266-112.104c.564 0 1.143.045 1.734.141 5.645.916 10.127 6.24 13.322 15.822 5.854 17.561 24.096 31.322 48.797 36.811 1.67.371 2.92 1.762 3.107 3.463.02.166 2.234 17.791 17.018 27.059 12.5 7.836 30.383 7.807 53.156-.088 2.148-.918 9.021-2.416 24.535 4.779-3.715-3.086-7.381-6.564-10.906-10.482-24.803-27.559-57.059-34.562-88.219-38.025-.207-.021-.41-.061-.611-.115-1.434-.391-35.254-9.906-47.977-38.535-5.412-12.174-17.744-12.877-22.783-12.621-3.516.182-6.174 1.424-8.129 3.799-3.447 4.186-4.189 11.209-4.129 16.186l10.119-2.529c1.802-1.991 5.827-5.665 10.966-5.665z" fill="#4c241d"/><path d="m135.041 188.507c4.019 11.626 2.46 23.295-5.875 35.017l-8 10.683v3.793c0 3.314-2.686 6-6 6-3.314 0-6-2.686-6-6v-1.213c0-3.785 1.275-7.46 3.619-10.432l4.106-5.205s-3.025-35.907 3.025-45.7" fill="#a9ba5a"/><path d="m115.166 248c-5.514 0-10-4.486-10-10v-1.213c0-4.664 1.59-9.248 4.479-12.91l3.137-3.975c-.576-7.781-2.268-36.846 3.732-46.555 1.16-1.877 3.625-2.465 5.504-1.301 1.881 1.16 2.463 3.625 1.301 5.504-3.902 6.316-3.568 29.889-2.441 43.264.084 1.012-.217 2.016-.846 2.812l-4.105 5.205c-1.779 2.256-2.76 5.082-2.76 7.955v1.214c0 1.104.896 2 2 2s2-.896 2-2v-3.793c0-.865.279-1.705.799-2.398l8-10.684c7.279-10.238 9.031-20.506 5.295-31.311-.721-2.088.387-4.365 2.475-5.088 2.082-.721 4.365.385 5.088 2.475 4.576 13.236 2.424 26.238-6.396 38.641l-7.26 9.697v2.461c-.002 5.514-4.488 10-10.002 10z" fill="#4c241d"/><path d="m171.341 203.65s-4 14.411 11.125 25.939l6.05 8.646-6.05 5.764h13.075c3.479-3.315 4.014-8.674 1.259-12.611l-7.634-11.388v-12" fill="#a9ba5a"/><g fill="#4c241d"><path d="m195.541 248h-13.074c-1.635 0-3.105-.996-3.713-2.514-.609-1.52-.23-3.254.953-4.383l3.561-3.391-3.73-5.332c-16.492-12.957-12.24-29.113-12.049-29.801.59-2.127 2.795-3.373 4.924-2.783 2.119.588 3.365 2.777 2.791 4.896-.145.566-2.912 12.109 9.689 21.715.328.25.615.551.852.889l6.049 8.646c.855 1.223.939 2.781.314 4.057h1.58c1.207-1.91 1.189-4.385-.164-6.318l-7.68-11.455c-.441-.658-.678-1.434-.678-2.227v-12c0-2.209 1.791-4 4-4s4 1.791 4 4v10.783l6.957 10.379c3.873 5.533 3.125 13.02-1.822 17.734-.745.71-1.733 1.105-2.76 1.105z"/><circle cx="43.166" cy="118" r="2"/></g></svg>