<svg id="dino1" enable-background="new 0 0 300 300" height="512" viewBox="0 0 300 300" width="512" xmlns="http://www.w3.org/2000/svg"><path d="m74.303 205.557c2.746-2.746 7.25-2.573 9.777.375l7.168 8.363c4.75 5.541 5.937 13.3 3.062 20.008l-3.219 7.51c-1.069 2.495-3.872 3.753-6.447 2.895-2.849-.95-4.31-4.101-3.195-6.889l.93-2.326c2.155-5.386.892-11.539-3.21-15.641l-4.867-4.867c-2.603-2.602-2.603-6.824.001-9.428z" fill="#a9ba5a"/><path d="m86.255 248.97c-.957 0-1.926-.148-2.873-.465-2.4-.801-4.387-2.576-5.449-4.869-1.064-2.293-1.135-4.955-.197-7.301l.93-2.326c1.562-3.906.65-8.352-2.324-11.324l-4.865-4.869c-2.016-2.016-3.125-4.695-3.125-7.543 0-2.85 1.109-5.529 3.125-7.545 2.096-2.094 5.008-3.244 7.951-3.115 2.959.113 5.762 1.467 7.691 3.717l7.168 8.363c5.783 6.75 7.201 16.018 3.703 24.186l-3.221 7.512c-1.481 3.452-4.915 5.579-8.514 5.579zm-7.235-41.366c-.455 0-1.223.115-1.889.781v.002c-.504.504-.781 1.172-.781 1.885 0 .711.277 1.381.781 1.887l4.865 4.867c5.242 5.238 6.85 13.07 4.098 19.953l-.93 2.326c-.172.424-.059.787.025.965.082.18.285.5.721.645.605.203 1.254-.09 1.506-.678l3.219-7.51c2.254-5.266 1.303-11.479-2.424-15.828l-7.168-8.363c-.66-.77-1.488-.912-1.924-.93-.03-.002-.064-.002-.099-.002zm-4.716-2.046h.039z" fill="#4c241d"/><circle cx="167.001" cy="140.36" fill="#edebdc" r="90"/><path d="m151.693 158.704-13.075-26.15 22.881-22.88 13.075 26.149z" fill="#fc8c29"/><path d="m151.694 162.704c-.213 0-.428-.018-.641-.051-1.27-.207-2.361-1.01-2.938-2.16l-13.076-26.15c-.77-1.541-.467-3.4.75-4.617l22.881-22.881c.91-.906 2.213-1.318 3.469-1.121 1.27.207 2.361 1.01 2.938 2.16l13.076 26.15c.77 1.541.467 3.4-.75 4.617l-22.881 22.881c-.756.756-1.775 1.172-2.828 1.172zm-8.209-29.361 9.305 18.609 16.918-16.918-9.305-18.609z" fill="#4c241d"/><path d="m183.931 163.539-1.23-19.396 19.935-8.08 1.23 19.396z" fill="#fc8c29"/><path d="m183.93 167.538c-.742 0-1.482-.207-2.129-.613-1.088-.684-1.781-1.85-1.863-3.133l-1.23-19.395c-.109-1.719.895-3.314 2.49-3.961l19.936-8.08c1.189-.482 2.541-.365 3.631.32 1.088.684 1.781 1.85 1.863 3.133l1.23 19.395c.109 1.719-.895 3.314-2.49 3.961l-19.936 8.08c-.482.195-.994.293-1.502.293zm2.944-20.769.697 10.979 12.121-4.914-.697-10.979z" fill="#4c241d"/><path d="m123.423 150.532-14.578-9.397 4.832-17.164 14.579 9.397z" fill="#fc8c29"/><path d="m123.423 154.532c-.758 0-1.512-.217-2.168-.639l-14.578-9.396c-1.475-.951-2.158-2.754-1.682-4.445l4.832-17.164c.344-1.221 1.246-2.207 2.434-2.656s2.516-.309 3.582.379l14.58 9.396c1.479.951 2.16 2.754 1.684 4.445l-4.834 17.164c-.344 1.223-1.246 2.207-2.434 2.656-.459.174-.938.26-1.416.26zm-9.928-15.158 7.545 4.863 2.564-9.107-7.545-4.863z" fill="#4c241d"/><path d="m105.001 170.424-16-4.808v-16.825l16 4.807z" fill="#fc8c29"/><path d="m105.001 174.423c-.385 0-.773-.055-1.15-.17l-16-4.807c-1.691-.508-2.85-2.064-2.85-3.83v-16.826c0-1.266.598-2.455 1.613-3.209 1.014-.758 2.33-.986 3.537-.621l16 4.809c1.691.508 2.85 2.064 2.85 3.83v16.824c0 1.266-.598 2.455-1.613 3.209-.698.519-1.538.791-2.387.791zm-12-11.781 8 2.402v-8.471l-8-2.404z" fill="#4c241d"/><path d="m85.001 190.36-12-7.1v-12.9l12 4.819z" fill="#fc8c29"/><path d="m85.001 194.36c-.705 0-1.41-.186-2.037-.559l-12-7.102c-1.217-.719-1.963-2.027-1.963-3.441v-12.898c0-1.328.66-2.57 1.76-3.314 1.104-.744 2.498-.891 3.73-.398l12 4.818c1.516.609 2.51 2.08 2.51 3.713v15.182c0 1.438-.771 2.764-2.02 3.475-.613.349-1.297.524-1.98.524zm-8-13.382 4 2.367v-5.461l-4-1.607z" fill="#4c241d"/><path d="m219.148 171.055-4.264-13.644 12.834-9.252 4.263 13.644z" fill="#fc8c29"/><path d="m219.147 175.056c-.424 0-.852-.068-1.264-.205-1.221-.406-2.17-1.375-2.555-2.602l-4.264-13.645c-.514-1.645.082-3.432 1.479-4.438l12.834-9.252c1.045-.754 2.381-.957 3.604-.551 1.221.406 2.17 1.375 2.555 2.602l4.264 13.645c.514 1.645-.082 3.432-1.479 4.438l-12.834 9.252c-.691.498-1.512.756-2.34.756zm.414-16.086 1.748 5.596 5.994-4.32-1.748-5.596z" fill="#4c241d"/><path d="m159.783 168.687-2.284 31.975 3.501 21.698-1.512 9.295c-2.291 2.291-1.37 6.193 1.704 7.218 1.432.477 3.009.18 4.169-.787l4.83-4.866c4.115-4.146 5.303-10.375 3.002-15.744l-8.193-19.116 17.296-25.399c2.43-7.748-3.693-15.515-11.794-14.961-5.737.393-10.309 4.951-10.719 10.687z" fill="#a9ba5a"/><path d="m162.526 243.095c-.873 0-1.746-.143-2.598-.426-2.771-.924-4.824-3.172-5.494-6.014-.555-2.355-.078-4.77 1.279-6.701l1.234-7.596-3.397-21.058c-.049-.305-.062-.613-.041-.922l2.285-31.975c.547-7.68 6.754-13.867 14.436-14.393 5.109-.373 10.078 1.848 13.258 5.879 3.182 4.035 4.162 9.369 2.625 14.27-.117.375-.289.73-.51 1.055l-16.061 23.586 7.328 17.1c2.959 6.904 1.451 14.811-3.84 20.139l-4.828 4.867c-1.744 1.466-3.713 2.189-5.676 2.189zm-1.004-42.61 3.428 21.238c.068.424.068.855-.002 1.279l-1.512 9.295c-.135.828-.525 1.594-1.119 2.188l-1.125 4.389 1.264-3.795 4.896-4.678c2.984-3.004 3.832-7.459 2.166-11.35l-7.992-18.643zm9.793-38.511c-.178 0-.357.006-.539.018-3.727.256-6.736 3.256-7.002 6.979v.002l-1.924 26.908 16.771-24.629c.543-2.254.039-4.562-1.416-6.408-1.452-1.843-3.575-2.87-5.89-2.87zm-11.531 6.713h.039z" fill="#4c241d"/><path d="m33.532 205.856c.852 1.705 2.595 2.781 4.5 2.781h10.377c1.889 0 3.761.348 5.524 1.026l27.515 10.583c7.998 3.076 16.77 3.519 25.037 1.264l23.23-6.335 9.297-1.033c13.025-1.447 25.169-7.284 34.436-16.551 3.378-3.378 7.738-5.576 12.459-6.305 16.064-2.48 55.56-9.822 81.093-25.142 0 0-42.493 9.806-75.18-3.269s-62.105-32.687-84.986-3.269c-14.016 18.021-28.033 28.682-36.789 34.239-5.199 3.299-11.64 3.919-17.357 1.632l-1.285-.514c-4.145-1.658-8.854-1.035-12.425 1.643l-3.965 2.973c-1.945 1.461-2.568 4.102-1.481 6.277z" fill="#a9ba5a"/><path d="m95.868 226.942c-5.375 0-10.727-.99-15.855-2.965l-27.516-10.58c-1.309-.504-2.684-.76-4.088-.76h-10.377c-3.441 0-6.535-1.912-8.076-4.99-.002-.002-.002-.002-.002-.002-1.953-3.906-.834-8.645 2.66-11.264l3.965-2.975c4.658-3.494 10.9-4.32 16.311-2.156l1.283.512c4.496 1.801 9.625 1.314 13.729-1.295 8.883-5.635 22.301-15.99 35.775-33.316 21.422-27.545 48.936-15.557 75.541-3.959 4.619 2.014 9.318 4.062 14.09 5.969 31.16 12.467 72.383 3.18 72.793 3.084 1.918-.436 3.873.574 4.609 2.4s.037 3.916-1.65 4.928c-26.172 15.703-66.441 23.18-82.541 25.666-3.914.604-7.455 2.395-10.242 5.182-9.869 9.869-22.945 16.154-36.822 17.695l-8.986 1-22.93 6.254c-3.853 1.049-7.769 1.572-11.671 1.572zm-58.758-22.875c.176.352.529.57.922.57h10.377c2.389 0 4.73.436 6.959 1.293l27.516 10.58c7.252 2.793 15.047 3.182 22.549 1.141l23.23-6.336c.201-.055.404-.094.611-.115l9.297-1.033c12.078-1.344 23.459-6.812 32.049-15.404 3.998-3.996 9.072-6.564 14.678-7.43 11.295-1.744 34.82-6.004 56.418-13.881-15.098.822-34.377-.061-51.381-6.861-4.846-1.939-9.619-4.02-14.312-6.064-27.053-11.789-48.418-21.102-66.029 1.535-14.184 18.236-28.387 29.186-37.805 35.16-6.275 3.982-14.115 4.717-20.986 1.969l-1.283-.512c-2.828-1.129-6.1-.697-8.539 1.127l-3.965 2.975c-.402.3-.529.841-.306 1.286z" fill="#4c241d"/><path d="m140.377 168.877-1.953 27.338c-.35 4.902.765 9.798 3.203 14.065l3.677 6.434c3.34 5.846 2.355 13.204-2.406 17.965l-2.843 2.843c-2.498 2.498-1.494 6.752 1.858 7.869 1.561.52 3.281.196 4.545-.858l11.136-9.28c3.97-3.308 5.811-8.524 4.798-13.592l-2.006-10.031c-1.894-9.469-1.372-19.263 1.518-28.478l3.016-9.617" fill="#a9ba5a"/><path d="m143.438 249.64c-.934 0-1.873-.148-2.791-.455-2.898-.967-5.047-3.318-5.75-6.291-.701-2.975.17-6.039 2.33-8.199l2.84-2.844c3.479-3.477 4.203-8.885 1.764-13.152l-3.676-6.434c-2.842-4.971-4.127-10.619-3.721-16.334l1.953-27.34c.156-2.201 2.062-3.826 4.275-3.705 2.203.158 3.861 2.072 3.705 4.275l-1.953 27.34c-.295 4.127.635 8.205 2.686 11.795l3.676 6.434c4.227 7.391 2.971 16.758-3.051 22.777l-2.84 2.844c-.199.197-.266.434-.201.705.062.27.229.451.494.539.242.086.516.029.717-.133l11.139-9.281c2.846-2.371 4.162-6.102 3.436-9.734l-2.006-10.031c-2.02-10.102-1.459-20.633 1.623-30.459l3.018-9.617c.662-2.111 2.91-3.279 5.014-2.619 2.107.662 3.281 2.906 2.619 5.014l-3.018 9.617c-2.68 8.547-3.168 17.709-1.412 26.496l2.006 10.029c1.303 6.514-1.057 13.199-6.158 17.449l-11.137 9.279c-1.602 1.335-3.571 2.035-5.581 2.035z" fill="#4c241d"/><path d="m100.08 205.933 7.168 8.363c4.75 5.541 5.937 13.3 3.062 20.008l-3.219 7.51c-1.069 2.495-3.872 3.753-6.447 2.895-2.849-.95-4.31-4.101-3.195-6.889l.93-2.326c2.155-5.386.892-11.539-3.21-15.641l-4.867-4.867" fill="#a9ba5a"/><path d="m102.255 248.97c-.957 0-1.926-.148-2.873-.465-2.4-.801-4.387-2.576-5.449-4.869-1.064-2.293-1.135-4.955-.197-7.301l.93-2.326c1.562-3.906.65-8.352-2.324-11.326l-4.865-4.867c-1.562-1.562-1.562-4.096 0-5.656 1.562-1.562 4.094-1.562 5.656 0l4.865 4.867c5.242 5.238 6.85 13.07 4.098 19.953l-.93 2.326c-.172.424-.059.787.025.965.082.18.285.5.721.645.6.203 1.252-.09 1.506-.678l3.219-7.51c2.254-5.266 1.303-11.479-2.424-15.828l-7.168-8.363c-1.438-1.678-1.244-4.203.434-5.641 1.674-1.441 4.201-1.244 5.641.434l7.168 8.363c5.783 6.75 7.201 16.018 3.703 24.186l-3.221 7.512c-1.482 3.452-4.916 5.579-8.515 5.579z" fill="#4c241d"/></svg>