<svg id="dino7" enable-background="new 0 0 300 300" height="512" viewBox="0 0 300 300" width="512" xmlns="http://www.w3.org/2000/svg"><circle cx="120.022" cy="138" fill="#edebdc" r="90"/><path d="m110.022 192v32l-19.568 16h27.223c4.609 0 8.345-3.736 8.345-8.345v-2.015l24-37.64z" fill="#d9be6f"/><path d="m117.678 244h-27.222c-1.691 0-3.199-1.062-3.766-2.656-.57-1.592-.074-3.369 1.234-4.439l18.098-14.801v-30.104c0-2.209 1.789-4 4-4h40c1.461 0 2.805.797 3.508 2.076.703 1.281.648 2.844-.137 4.074l-23.371 36.656v.85c0 6.807-5.539 12.344-12.344 12.344zm-16.011-8h16.012c2.395 0 4.344-1.949 4.344-4.344v-2.016c0-.762.219-1.508.629-2.15l20.077-31.49h-28.707v28c0 1.199-.539 2.336-1.469 3.096zm8.355-12h.039z" fill="#4c241d"/><path d="m54.54 165.333 11.971-6.095 7.993 5.426c6.106 4.145 13.989 4.422 20.361.714l19.71-11.469c7.775-4.524 16.397-7.331 25.307-8.238l33.907-3.453c9.689-.987 19.175-3.379 28.129-7.276 19.436-8.46 51.947-26.15 68.104-54.942 0 0-17.957 128-101.755 128h-58.179c-25.794 0-48.462-17.412-55.548-42.667z" fill="#a9ba5a"/><path d="m168.268 212h-58.18c-27.441 0-51.867-18.746-59.398-45.586-.516-1.836.336-3.779 2.035-4.645l11.969-6.096c1.305-.658 2.855-.562 4.062.254l7.996 5.426c4.859 3.301 11.031 3.521 16.102.568l19.711-11.469c8.32-4.844 17.375-7.791 26.91-8.76l33.906-3.453c9.477-.965 18.539-3.309 26.938-6.967 17.961-7.814 50.441-25.123 66.215-53.23.938-1.682 2.941-2.447 4.766-1.834 1.824.615 2.949 2.441 2.684 4.348-.188 1.33-4.746 32.963-19.789 65.139-20.286 43.377-49.997 66.305-85.927 66.305zm-108.902-44.635c7.508 21.729 27.922 36.635 50.722 36.635h58.18c60.484 0 85.465-71.557 94.012-106.201-18.074 20.863-43.457 34.146-58.766 40.811-9.16 3.988-19.023 6.541-29.32 7.588l-33.906 3.453c-8.398.855-16.371 3.451-23.699 7.717l-19.711 11.469c-7.758 4.518-17.191 4.186-24.617-.863l-6.039-4.098z" fill="#4c241d"/><path d="m186.224 163.798s25.727 28.288-4.202 64.202v9.083c0 6.03-4.888 10.917-10.917 10.917h-29.083l14.273-12.374s-29.928-29.928-5.986-65.842" fill="#a9ba5a"/><path d="m171.104 252h-29.082c-1.668 0-3.164-1.037-3.746-2.602-.586-1.564-.137-3.326 1.125-4.42l11.273-9.775c-7.211-9.141-24.488-36.445-3.691-67.639 1.223-1.84 3.699-2.338 5.547-1.109 1.84 1.225 2.336 3.709 1.109 5.547-21.875 32.809 4.355 59.668 5.484 60.795.785.785 1.207 1.861 1.168 2.971s-.535 2.152-1.375 2.879l-6.175 5.353h18.363c3.816 0 6.918-3.104 6.918-6.918v-9.082c0-.936.328-1.842.926-2.561 27.383-32.859 4.551-58.691 4.316-58.949-1.484-1.635-1.363-4.164.27-5.65 1.633-1.484 4.16-1.363 5.652.268.277.307 27.164 30.693-3.164 68.322v7.652c0 8.227-6.691 14.918-14.918 14.918z" fill="#4c241d"/><path d="m100.037 194.741-13.865 20.416c-1.139 3.104-4.577 4.696-7.681 3.558-3.104-1.139-4.696-4.577-3.558-7.681l2.062-5.619 11.804-14.797" fill="#a9ba5a"/><path d="m80.557 223.086c-1.16 0-2.324-.205-3.445-.615-5.164-1.895-7.828-7.643-5.938-12.811l2.066-5.623c.148-.402.359-.779.629-1.115l11.805-14.797c1.379-1.729 3.895-2.008 5.621-.633 1.727 1.377 2.008 3.895.629 5.621l-11.398 14.291-1.84 5.01c-.375 1.025.156 2.168 1.184 2.545.672.248 1.242.07 1.516-.062.281-.127.785-.443 1.027-1.113.113-.309.266-.602.449-.873l13.867-20.416c1.242-1.826 3.73-2.305 5.555-1.061 1.828 1.24 2.305 3.729 1.062 5.557l-13.625 20.059c-.969 2.264-2.719 4.064-4.973 5.109-1.335.616-2.761.927-4.191.927z" fill="#4c241d"/><path d="m31.605 190.734s-10.839-27.099 24.21-55.51c3.174-2.573 6.189-5.37 9.111-8.225 4.813-4.701 14.976-12.194 31.938-13.778 3.532-.33 6.567 2.541 6.567 6.088 0 3.061-2.264 5.611-5.296 6.039-7.748 1.096-22.166 4.823-30.618 17.501.002 0 17.958 41.899-35.912 47.885z" fill="#d9be6f"/><g fill="#4c241d"><path d="m31.6 194.734c-1.617 0-3.098-.984-3.711-2.514-.488-1.219-11.508-30.182 25.406-60.104 2.656-2.154 5.465-4.689 8.84-7.982 4.938-4.826 15.973-13.18 34.359-14.896 2.77-.26 5.547.68 7.617 2.564 2.109 1.922 3.32 4.658 3.32 7.506 0 4.998-3.758 9.297-8.738 10-6.797.961-19 4.076-26.691 14.143 1.766 5.307 5.227 19.273-1.988 31.656-6.359 10.914-19.133 17.51-37.969 19.602-.148.018-.296.025-.445.025zm65.817-77.539c-.059 0-.117.002-.18.008-15.93 1.488-25.328 8.568-29.512 12.656-3.555 3.469-6.539 6.16-9.391 8.473-25.961 21.043-25.234 40.703-23.801 47.99 14.309-2.129 23.91-7.248 28.57-15.242 6.926-11.889.801-26.508.738-26.654-.535-1.242-.402-2.67.348-3.795 9.301-13.951 24.91-18.045 33.387-19.244 1.074-.152 1.855-1.025 1.855-2.078 0-.602-.258-1.182-.707-1.59-.222-.203-.675-.524-1.307-.524z"/><circle cx="44.022" cy="170" r="3.42"/></g></svg>