<svg id="dino27" enable-background="new 0 0 300 300" height="512" viewBox="0 0 300 300" width="512" xmlns="http://www.w3.org/2000/svg"><circle cx="170" cy="164" fill="#edebdc" r="90"/><path d="m171.294 169.255-36.078-27.059-18.04-36.078 27.059-54.118 11.765-2h-44l-26.392 38.078 13.529 67.647 31.569 27.059z" fill="#fc8c29"/><path d="m130.707 186.785c-.941 0-1.867-.332-2.602-.963l-31.57-27.061c-.68-.582-1.145-1.375-1.32-2.252l-13.528-67.646c-.215-1.066.016-2.172.633-3.064l26.391-38.078c.75-1.078 1.976-1.721 3.289-1.721h44c2.078 0 3.812 1.592 3.984 3.664.176 2.07-1.266 3.932-3.312 4.279l-9.766 1.66-25.258 50.514 16.723 33.445 35.32 26.494c1.191.893 1.789 2.371 1.551 3.84s-1.273 2.684-2.684 3.154l-40.586 13.529c-.414.14-.839.206-1.265.206zm-27.918-33.199 28.801 24.688 31.195-10.398-29.969-22.48c-.5-.371-.902-.855-1.18-1.41l-18.039-36.078c-.562-1.127-.562-2.451 0-3.578l25.165-50.33h-24.668l-24.23 34.961z" fill="#4c241d"/><path d="m114.827 127.869c.569-1.99-1.922-3.395-3.321-1.869-8.675 9.464-25.251 26.503-34.918 29.726l-9.02 4.51-31.568 45.097 31.569-22.549s18.039 4.51 27.059-9.02l4.51-9.02 18.039 18.039s4.51 31.569 40.588 9.02l30.235 6.197s14.863 16.353 32.902-1.686l-28.902-10.314 16-12-5.137-22.784s34.078-60.196 61.137-69.216h-44l-35.176 28.627s18.039 49.608-45.098 54.118c-5.775-2.888-12.461-3.363-18.586-1.321l-3.963 1.321-9.02-13.529z" fill="#ffce56"/><g fill="#4c241d"><path d="m36 209.334c-1.023 0-2.043-.393-2.816-1.158-1.383-1.371-1.578-3.539-.461-5.135l31.57-45.1c.383-.547.895-.986 1.488-1.285l9.02-4.51c.168-.084.344-.156.523-.217 6.395-2.131 18.508-12.566 33.234-28.633 1.875-2.047 4.875-2.521 7.293-1.176 2.422 1.355 3.586 4.168 2.824 6.844v.004l-6.164 21.566 6.297 9.449 1.066-.355c6.824-2.273 14.094-1.896 20.605 1.047 18.727-1.512 31.473-7.295 37.898-17.201 8.953-13.805 2.75-31.305 2.688-31.48-.582-1.602-.09-3.395 1.234-4.469l35.176-28.627c.712-.582 1.607-.898 2.525-.898h44c1.961 0 3.633 1.422 3.949 3.359.312 1.936-.824 3.814-2.684 4.436-23.168 7.723-53.02 57.291-58.156 66.068l4.793 21.258c.348 1.537-.242 3.133-1.504 4.078l-10.043 7.535 21.891 7.812c1.293.461 2.258 1.551 2.559 2.889s-.105 2.738-1.074 3.707c-6.574 6.576-13.695 9.791-20.879 9.645-8.383-.199-14.492-4.979-16.805-7.104l-27.539-5.643c-13.055 7.848-23.918 9.857-32.309 5.953-8.949-4.16-11.895-13.643-12.711-17.24l-13.254-13.256-2.027 4.055c-.074.15-.156.293-.25.432-8.715 13.076-24.078 11.93-29.461 11.055l-30.172 21.551c-.699.498-1.512.744-2.324.744zm121.766-21.529c.27 0 .535.027.805.082l30.234 6.195c.828.17 1.586.6 2.156 1.229.035.037 5.051 5.35 12.16 5.48 3.336.053 6.543-.971 9.805-3.076l-22.27-7.947c-1.387-.496-2.391-1.713-2.609-3.168-.223-1.457.375-2.916 1.555-3.799l13.926-10.447-4.566-20.26c-.219-.969-.066-1.984.422-2.85 1.195-2.113 25.273-44.318 49.676-63.244h-27.637l-31.996 26.039c1.676 6.314 4.504 22.156-4.336 35.789-7.98 12.307-23.148 19.34-45.078 20.906-.719.053-1.43-.094-2.074-.412-4.863-2.432-10.383-2.822-15.531-1.104l-3.965 1.32c-1.715.562-3.594-.076-4.594-1.576l-9.02-13.529c-.652-.977-.84-2.189-.52-3.318l4.355-15.24c-10.199 10.605-22.215 21.619-30.523 24.547l-7.875 3.938-17.621 25.17 12.602-9c.953-.68 2.156-.906 3.293-.625.617.146 15.27 3.572 22.629-7.16l4.391-8.787c.574-1.15 1.668-1.955 2.938-2.162 1.293-.197 2.566.213 3.469 1.121l18.039 18.041c.613.611 1.008 1.406 1.133 2.262.012.078 1.488 9.328 8.48 12.543 5.977 2.754 14.984.555 26.027-6.35.639-.401 1.373-.608 2.12-.608zm-42.938-59.936h.039zm-3.848-1.096v.006z"/><path d="m199.832 192.756c-.461 0-.93-.082-1.391-.252l-39.832-14.754c-1.668-.617-2.727-2.264-2.598-4.039s1.414-3.252 3.152-3.623c1.594-.348 39.141-9.084 35.457-54.506-.102-1.289.422-2.551 1.414-3.385l20.367-17.113c1.691-1.422 4.211-1.207 5.637.49 1.422 1.691 1.203 4.213-.488 5.635l-18.812 15.805c2 34.854-18.305 50.514-31.363 56.934l29.848 11.057c2.07.766 3.129 3.068 2.359 5.139-.598 1.612-2.125 2.612-3.75 2.612z"/><path d="m107.996 134c-1.793 0-3.422-1.213-3.875-3.029l-8-32c-.539-2.145.766-4.316 2.91-4.852 2.137-.543 4.312.77 4.848 2.91l8 32c.539 2.145-.766 4.316-2.91 4.852-.325.082-.653.119-.973.119z"/><circle cx="78" cy="168" r="2.14"/></g></svg>