<?xml version="1.0" encoding="utf-8"?>
<!-- Generator: Adobe Illustrator 25.2.0, SVG Export Plug-In . SVG Version: 6.00 Build 0)  -->
<svg version="1.1" xmlns="http://www.w3.org/2000/svg" xmlns:xlink="http://www.w3.org/1999/xlink" x="0px" y="0px"
	 viewBox="0 0 512 512" style="enable-background:new 0 0 512 512;" xml:space="preserve">
<style type="text/css">
	.st0{fill:#EDE9E8;}
	.st1{fill:#A885A0;}
	.st2{fill:#4C241D;}
	.st3{fill:#C8B2C3;}
	.st4{display:none;}
	.st5{display:inline;fill:#4C241D;}
</style>
<g id="dino2">
	<circle class="st0" cx="231.2" cy="211.6" r="153.6"/>
	<path class="st1" d="M119.2,362.3l9.6,84.8h28.8l9.6-66L119.2,362.3z"/>
	<path class="st2" d="M157.5,454h-28.8c-3.5,0-6.4-2.6-6.8-6.1l-9.6-84.8c-0.3-2.4,0.7-4.7,2.6-6.2c1.9-1.5,4.4-1.8,6.7-0.9l48,18.9
		c3,1.2,4.7,4.2,4.3,7.3l-9.6,66C163.8,451.5,160.9,454,157.5,454z M134.9,440.3h16.8l8-54.8l-32.4-12.7L134.9,440.3z"/>
	<path class="st3" d="M61.6,295.3c-19.9-109.5,31.2-167.5,66.3-193.5c16-11.9,37.5-12.8,54.5-2.6l8.2,4.9c8.4,5.1,9.1,17,1.4,23.1
		c-23.6,18.6-44,5-44,5s-61.1,52.3-41.8,132.1c1.8,7.4,5.7,14.1,11.1,19.5c13.1,13.1,32.1,18.3,50,13.9l27.4-6.9
		c24.7-6.2,50.7-5.7,74.8,2.6c26.5,9.2,57.4,28.6,79.9,69c48,86.3,105.5,67.1,105.5,67.1s-76.7,28.8-153.5-28.8l-37.5,9.4
		c-32.1,8-65.9,6.1-96.8-5.8C124.7,388,72.6,355.9,61.6,295.3L61.6,295.3z"/>
	<path class="st2" d="M406.7,443.8c-29.2,0-67.8-7.2-106.8-35.5l-34.3,8.6c-33.8,8.5-68.7,6.4-100.9-6.1
		C121,393.9,66.5,360.4,54.9,296.6C34.1,182.3,89.2,122.1,123.8,96.4c18.2-13.5,42.6-14.7,62.1-2.9l8.2,4.9
		c5.9,3.5,9.6,9.7,10.1,16.5c0.4,6.9-2.5,13.5-7.9,17.8c-20.2,15.9-38.6,11.5-47.1,7.9c-12.1,11.9-52,57.3-36.3,122.2
		c1.5,6,4.7,11.6,9.3,16.3c11.3,11.3,28,15.9,43.5,12.1l27.4-6.9c26.9-6.7,54.1-5.8,78.7,2.8c35.8,12.4,63.9,36.7,83.6,72.2
		c44.3,79.8,95.3,64.6,97.4,64c3.5-1.1,7.3,0.8,8.6,4.3c1.2,3.5-0.6,7.3-4,8.6C455.6,436.6,435.8,443.8,406.7,443.8z M301.4,394
		c1.5,0,2.9,0.5,4.1,1.4c35.6,26.7,71.5,34,98.9,34.4c-19.1-9.3-40.9-27.9-61-64c-18-32.5-43.7-54.6-76.1-65.9
		c-22.1-7.7-46.6-8.5-70.9-2.4l-27.4,6.9c-20.2,5-41.8-1-56.5-15.7c-6.4-6.4-10.8-14.2-12.9-22.7c-20.1-82.8,41.3-136.6,43.9-138.9
		c2.3-2,5.7-2.2,8.2-0.5c0.6,0.4,16.8,10.5,36-4.7c1.9-1.5,2.9-3.8,2.8-6.2c-0.2-2.4-1.4-4.5-3.5-5.7l-8.2-4.9
		c-14.8-8.9-33.2-8-47,2.2c-32.1,23.8-83,79.8-63.6,186.8c10.5,57.6,60.8,88.3,101.3,103.9c29.5,11.4,61.6,13.3,92.7,5.5l37.4-9.4
		C300.3,394.1,300.8,394,301.4,394L301.4,394z"/>
	<path class="st3" d="M243.8,352.9l19.2,94.3h28.8l9.6-66"/>
	<path class="st2" d="M291.8,454H263c-3.2,0-6-2.3-6.7-5.5l-19.2-94.3c-0.7-3.7,1.6-7.3,5.3-8.1c3.7-0.8,7.3,1.6,8.1,5.3l18.1,88.8
		h17.3l8.7-60.1c0.5-3.7,4-6.3,7.7-5.8c3.7,0.5,6.3,4,5.8,7.7l-9.6,66C298.1,451.5,295.2,454,291.8,454z"/>
	<path class="st3" d="M147.9,362.3l9.6,84.8h28.8l9.6-66"/>
	<g>
		<path class="st2" d="M186.3,454h-28.8c-3.5,0-6.4-2.6-6.8-6.1l-9.6-84.8c-0.4-3.7,2.3-7.1,6-7.6c3.7-0.4,7.1,2.3,7.6,6l8.9,78.8
			h16.8l8.7-60.1c0.5-3.7,4-6.3,7.7-5.8c3.7,0.5,6.3,4,5.8,7.7l-9.6,66C192.6,451.5,189.7,454,186.3,454L186.3,454z"/>
		<circle class="st2" cx="163" cy="109.2" r="4.9"/>
	</g>
	<g class="st4">
		<path class="st5" d="M231,96.5v29.4h-15.1V96.5c2,1.1,4.6,1.7,7.7,1.7C226.6,98.2,229,97.6,231,96.5z M226.6,96.6
			c-1.2,0-2.2-0.4-3-1.3c-0.8-0.8-1.3-1.9-1.3-3s0.4-2.2,1.3-3c0.8-0.8,1.9-1.2,3-1.2s2.2,0.4,3,1.2s1.2,1.8,1.2,3s-0.4,2.2-1.2,3
			C228.8,96.2,227.8,96.6,226.6,96.6z"/>
		<path class="st5" d="M260.3,96.5v8.3H254v6.3c0,2.1,1,3.2,2.9,3.2c1.4,0,2.6-0.7,3.6-2.1v11.6c-2.4,1.6-5.3,2.3-8.7,2.3
			c-3.6,0-6.7-1.1-9.2-3.2c-2.5-2.2-3.7-5.1-3.7-8.9v-9.2h-6.2L254,88.1v8.4H260.3z"/>
		<path class="st5" d="M267,110.9l-0.5-0.3c2.3-1.4,3.6-3.5,3.9-6.2c-4.3-1.3-6.5-3.9-6.5-7.8c0-2.4,0.8-4.4,2.4-6.1
			c1.6-1.7,3.5-2.5,5.9-2.5c2.3,0,4.3,0.8,5.8,2.5c1.5,1.7,2.3,3.8,2.3,6.4c0,3.3-1.3,6.2-3.8,9C273.9,108.6,270.7,110.3,267,110.9z
			"/>
		<path class="st5" d="M281.1,123l3.4-8.3c1,1.4,2.3,2.5,3.8,3.3c1.5,0.8,2.9,1.2,4.3,1.2c0.9,0,1.6-0.2,2.1-0.6
			c0.5-0.4,0.8-0.9,0.8-1.5c0-0.6-0.2-1.1-0.7-1.6c-0.4-0.4-1.6-0.9-3.6-1.5c-1.9-0.6-3.5-1.2-4.8-1.8c-1.2-0.7-2.3-1.6-3.1-2.9
			c-0.8-1.3-1.2-2.7-1.2-4.2c0-2.9,1.3-5.2,3.8-6.8c2.5-1.6,6-2.4,10.6-2.4c5.1,0,9.5,0.8,13.1,2.5l-3.6,7.5
			c-2.4-2.1-4.7-3.2-6.9-3.2c-0.7,0-1.3,0.2-1.8,0.5c-0.5,0.3-0.7,0.7-0.7,1.2c0,0.6,0.2,1.1,0.7,1.6c0.5,0.4,1.7,0.9,3.7,1.4
			c2,0.5,3.7,1.1,5,1.7c1.3,0.7,2.4,1.6,3.2,2.9c0.8,1.3,1.2,2.8,1.2,4.5c0,3-1.2,5.4-3.7,7.2c-2.5,1.8-5.6,2.6-9.5,2.6
			C292,126.3,286.6,125.2,281.1,123z"/>
		<path class="st5" d="M331.3,108.6v-8.8c4.3-2.3,9.1-3.5,14.5-3.5c5.1,0,8.9,1.1,11.4,3.3s3.7,5.6,3.7,10.1v16.3h-15.1v-2.2
			c-2.2,1.6-4.7,2.4-7.3,2.4c-2.2,0-4.1-0.7-5.6-2.2c-1.5-1.5-2.2-3.3-2.2-5.5c0-2.5,0.9-4.6,2.8-6.2s4.3-2.4,7.3-2.4
			c1.8,0,3.5,0.2,5.2,0.7c0-1.4-0.5-2.4-1.6-3.2c-1-0.8-2.5-1.1-4.4-1.1C337,106.2,334.2,107,331.3,108.6z M345.8,119.4v-4.1
			c-0.9-0.3-1.7-0.5-2.5-0.5c-0.9,0-1.6,0.2-2.2,0.7c-0.6,0.5-0.8,1.1-0.8,1.9c0,0.8,0.3,1.5,0.9,2c0.6,0.5,1.3,0.8,2.3,0.8
			C344.3,120.2,345.1,119.9,345.8,119.4z"/>
		<path class="st5" d="M221.3,178.2h53.6c11,0,19.3,2.1,24.8,6.4c5.6,4.3,8.4,10.1,8.4,17.5c0,8-3.7,14.2-11.2,18.4
			c4.4,2.3,7.8,5,10.1,8.1c2.3,3.1,3.4,6.9,3.4,11.5c0,7.2-2.6,12.9-7.7,17.2c-5.1,4.3-12.4,6.5-21.6,6.5h-59.8V178.2z M259.2,195.4
			v16.7h1c4.1,0,7-0.6,8.8-1.9c1.7-1.3,2.6-3.4,2.6-6.5c0-5.5-3.3-8.3-10-8.3H259.2z M259.2,226.5V245h1.2c4.3,0,7.4-0.7,9.3-2
			c1.9-1.3,2.8-3.6,2.8-6.9c0-6.4-3.5-9.7-10.6-9.7H259.2z"/>
		<path class="st5" d="M362.7,265.3c-12.2,0-22.6-4.3-31.1-12.9c-8.5-8.6-12.8-19.1-12.8-31.4c0-12.3,4.3-22.8,12.8-31.3
			c8.5-8.6,18.9-12.8,31.1-12.8c12.3,0,22.7,4.3,31.2,12.8c8.5,8.6,12.8,19,12.8,31.3c0,12.4-4.3,22.8-12.8,31.4
			C385.4,261,375,265.3,362.7,265.3z M362.7,209.7c-2.4,0-4.5,0.9-6.1,2.6c-1.6,1.7-2.4,3.8-2.4,6.4c0,2.6,0.8,4.7,2.4,6.4
			c1.6,1.7,3.6,2.6,6.1,2.6c2.5,0,4.5-0.9,6.1-2.6c1.6-1.7,2.4-3.8,2.4-6.4c0-2.6-0.8-4.7-2.4-6.4
			C367.2,210.6,365.2,209.7,362.7,209.7z"/>
		<path class="st5" d="M471.4,263.9h-38v-37.4l-32.7-48.3h38.4l13.3,19.4l13.2-19.4H504l-32.6,48.3V263.9z"/>
	</g>
</g>
<g id="Calque_2">
	<g>
		<path class="st2" d="M234.3,99.8v29.4h-15.1V99.8c2,1.1,4.6,1.7,7.7,1.7C229.9,101.4,232.3,100.9,234.3,99.8z M229.9,99.9
			c-1.2,0-2.2-0.4-3-1.3c-0.8-0.8-1.3-1.9-1.3-3s0.4-2.2,1.3-3c0.8-0.8,1.9-1.2,3-1.2s2.2,0.4,3,1.2s1.2,1.8,1.2,3s-0.4,2.2-1.2,3
			C232.1,99.4,231.1,99.9,229.9,99.9z"/>
		<path class="st2" d="M263.6,99.8v8.3h-6.3v6.3c0,2.1,1,3.2,2.9,3.2c1.4,0,2.6-0.7,3.6-2.1v11.6c-2.4,1.6-5.3,2.3-8.7,2.3
			c-3.6,0-6.7-1.1-9.2-3.2c-2.5-2.2-3.7-5.1-3.7-8.9V108H236l21.2-16.7v8.4H263.6z"/>
		<path class="st2" d="M270.2,114.2l-0.5-0.3c2.3-1.4,3.6-3.5,3.9-6.2c-4.3-1.3-6.5-3.9-6.5-7.8c0-2.4,0.8-4.4,2.4-6.1
			c1.6-1.7,3.5-2.5,5.9-2.5c2.3,0,4.3,0.8,5.8,2.5c1.5,1.7,2.3,3.8,2.3,6.4c0,3.3-1.3,6.2-3.8,9C277.2,111.9,274,113.6,270.2,114.2z
			"/>
		<path class="st2" d="M284.4,126.3l3.4-8.3c1,1.4,2.3,2.5,3.8,3.3c1.5,0.8,2.9,1.2,4.3,1.2c0.9,0,1.6-0.2,2.1-0.6
			c0.5-0.4,0.8-0.9,0.8-1.5c0-0.6-0.2-1.1-0.7-1.6c-0.4-0.4-1.6-0.9-3.6-1.5c-1.9-0.6-3.5-1.2-4.8-1.8c-1.2-0.7-2.3-1.6-3.1-2.9
			c-0.8-1.3-1.2-2.7-1.2-4.2c0-2.9,1.3-5.2,3.8-6.8c2.5-1.6,6-2.4,10.6-2.4c5.1,0,9.5,0.8,13.1,2.5l-3.6,7.5
			c-2.4-2.1-4.7-3.2-6.9-3.2c-0.7,0-1.3,0.2-1.8,0.5c-0.5,0.3-0.7,0.7-0.7,1.2c0,0.6,0.2,1.1,0.7,1.6c0.5,0.4,1.7,0.9,3.7,1.4
			c2,0.5,3.7,1.1,5,1.7c1.3,0.7,2.4,1.6,3.2,2.9c0.8,1.3,1.2,2.8,1.2,4.5c0,3-1.2,5.4-3.7,7.2c-2.5,1.8-5.6,2.6-9.5,2.6
			C295.3,129.6,289.9,128.5,284.4,126.3z"/>
		<path class="st2" d="M334.6,111.8V103c4.3-2.3,9.1-3.5,14.5-3.5c5.1,0,8.9,1.1,11.4,3.3s3.7,5.6,3.7,10.1v16.3H349V127
			c-2.2,1.6-4.7,2.4-7.3,2.4c-2.2,0-4.1-0.7-5.6-2.2c-1.5-1.5-2.2-3.3-2.2-5.5c0-2.5,0.9-4.6,2.8-6.2s4.3-2.4,7.3-2.4
			c1.8,0,3.5,0.2,5.2,0.7c0-1.4-0.5-2.4-1.6-3.2c-1-0.8-2.5-1.1-4.4-1.1C340.3,109.5,337.5,110.3,334.6,111.8z M349,122.7v-4.1
			c-0.9-0.3-1.7-0.5-2.5-0.5c-0.9,0-1.6,0.2-2.2,0.7c-0.6,0.5-0.8,1.1-0.8,1.9c0,0.8,0.3,1.5,0.9,2c0.6,0.5,1.3,0.8,2.3,0.8
			C347.6,123.5,348.4,123.2,349,122.7z"/>
	</g>
	<g>
		<path class="st2" d="M259.7,190.9l-18.3,25.8c-7.6-3.7-14.7-5.5-21.2-5.5c-4.3,0-7.8,1.1-10.4,3.3c-2.6,2.2-3.9,5.2-3.9,8.8
			c0,7,4.6,10.4,13.7,10.4v-13.4h38v46.2c-15.3,0.9-25.7,1.3-31.2,1.3c-21,0-35.5-4.5-43.7-13.4c-8.2-8.9-12.2-19.3-12.2-31.2
			c0-8.2,1.9-15.6,5.7-22.5c3.8-6.8,9.3-12.1,16.5-15.8c7.2-3.7,15.7-5.6,25.5-5.6c6.9,0,14,1,21.4,3
			C246.9,184.5,253.7,187.3,259.7,190.9z"/>
		<path class="st2" d="M271.6,266.5v-85.7h37.9v85.7H271.6z"/>
		<path class="st2" d="M326.4,180.8h56c9.7,0,17.3,2.4,22.9,7.3c5.5,4.9,8.3,11,8.3,18.3c0,8.1-3.3,14.4-9.8,19
			c9.2,10.6,14.8,24.2,16.6,41H381c-0.7-10.8-2.3-18.8-4.9-24s-6.5-7.7-11.8-7.7v31.7h-37.9V180.8z M364.3,198.5V215h1.1
			c6.8,0,10.2-2.7,10.2-8c0-2.2-0.7-4.2-2.1-5.9c-1.4-1.7-3.7-2.6-6.9-2.6H364.3z"/>
		<path class="st2" d="M429.3,266.5v-85.7h38V245h33.2v21.5H429.3z"/>
	</g>
</g>
</svg>
