<svg id="dino28" enable-background="new 0 0 300 300" height="512" viewBox="0 0 300 300" width="512" xmlns="http://www.w3.org/2000/svg"><circle cx="127.021" cy="145" fill="#edebdc" r="90"/><path d="m144.495 182.544s0 12.526 12.526 20.877v8.351s16.702 12.526 29.228 12.526l-16.568-19.653s-4.309-9.575-.133-13.75" fill="#d9be6f"/><path d="m186.248 228.299c-13.699 0-30.902-12.783-31.625-13.328-1.008-.754-1.602-1.939-1.602-3.199v-6.287c-12.379-9.383-12.527-22.369-12.527-22.941 0-2.209 1.789-4 4-4 2.199 0 3.988 1.777 4 3.975.008.469.293 10.607 10.746 17.576 1.113.742 1.781 1.99 1.781 3.328v6.297c3.27 2.26 8.766 5.631 14.414 7.959l-8.812-10.455c-.238-.283-.438-.6-.59-.938-.555-1.236-5.27-12.264.688-18.219 1.562-1.562 4.094-1.562 5.656 0s1.562 4.094 0 5.656c-1.305 1.305-.473 5.82.746 8.797l16.184 19.201c1.004 1.189 1.223 2.854.57 4.264-.656 1.411-2.074 2.314-3.629 2.314zm-37.754-45.756h.039z" fill="#4c241d"/><path d="m86.004 182.719 8.351 16.702s-4.175 12.526 8.351 25.053l20.877 12.526-16.702-29.228s8.351-4.175 8.351-12.526" fill="#d9be6f"/><g fill="#4c241d"><path d="m123.584 241c-.707 0-1.418-.188-2.059-.57l-20.879-12.525c-.281-.168-.539-.369-.77-.602-11.426-11.426-10.59-23.057-9.75-27.395l-7.699-15.4c-.988-1.977-.188-4.379 1.789-5.367 1.977-.992 4.383-.186 5.367 1.789l8.348 16.703c.473.949.551 2.049.215 3.055-.117.383-3.035 10.254 7.051 20.617l7.32 4.393-9.109-15.941c-.547-.955-.676-2.092-.355-3.143.316-1.053 1.055-1.928 2.039-2.42.039-.02 6.141-3.234 6.141-8.947 0-2.209 1.789-4 4-4s4 1.791 4 4c0 6.697-3.973 11.236-7.047 13.746l14.871 26.023c.902 1.58.625 3.57-.676 4.842-.766.751-1.778 1.142-2.797 1.142z"/><path d="m93.65 174.018c-.59 0-1.191-.131-1.758-.408-1.984-.973-2.801-3.371-1.828-5.354l7.367-15.018c.973-1.979 3.371-2.803 5.352-1.83 1.984.973 2.801 3.371 1.828 5.354l-7.367 15.018c-.695 1.415-2.113 2.238-3.594 2.238z"/><path d="m110.701 165.666c-.602 0-1.211-.135-1.785-.422-1.977-.988-2.777-3.391-1.789-5.367l4.176-8.35c.992-1.975 3.395-2.779 5.367-1.789 1.977.988 2.777 3.391 1.789 5.367l-4.176 8.35c-.703 1.402-2.113 2.211-3.582 2.211z"/><path d="m127.58 165.666c-.602 0-1.211-.135-1.785-.422-1.977-.988-2.777-3.391-1.789-5.367l4.176-8.35c.992-1.975 3.391-2.779 5.367-1.789 1.977.988 2.777 3.391 1.789 5.367l-4.176 8.35c-.703 1.402-2.113 2.211-3.582 2.211z"/><path d="m144.279 165.666c-.602 0-1.211-.135-1.785-.422-1.977-.988-2.777-3.391-1.789-5.367l4.176-8.35c.992-1.975 3.391-2.779 5.367-1.789 1.977.988 2.777 3.391 1.789 5.367l-4.176 8.35c-.703 1.402-2.113 2.211-3.582 2.211z"/><path d="m160.279 169.666c-.602 0-1.211-.135-1.785-.422-1.977-.988-2.777-3.391-1.789-5.367l4.176-8.35c.992-1.979 3.387-2.779 5.367-1.789 1.977.988 2.777 3.391 1.789 5.367l-4.176 8.35c-.703 1.402-2.113 2.211-3.582 2.211z"/><path d="m176.279 173.666c-.602 0-1.211-.135-1.785-.422-1.977-.988-2.777-3.391-1.789-5.367l4.176-8.35c.988-1.975 3.391-2.779 5.367-1.789 1.977.988 2.777 3.391 1.789 5.367l-4.176 8.35c-.703 1.402-2.113 2.211-3.582 2.211z"/><path d="m192.279 181.666c-.602 0-1.211-.135-1.785-.422-1.977-.988-2.777-3.391-1.789-5.367l4.176-8.35c.988-1.977 3.391-2.775 5.367-1.789 1.977.988 2.777 3.391 1.789 5.367l-4.176 8.35c-.703 1.402-2.113 2.211-3.582 2.211z"/></g><path d="m31.021 199.246v-2.496c0-3.528 2.173-6.691 5.465-7.957l48.816-18.775h8.351s45.93-25.053 104.386 8.351c0 0 29.228-8.351 45.93 4.175s25.053 12.526 25.053 12.526-20.877 4.175-37.579-4.175c-16.702-8.351-54.281 33.404-104.386 16.702 0 0-16.702 0-29.228-4.175 0 0-8.807 7.579-20.807-.421-.001-.001-29.299 8.771-46.001-3.755z" fill="#a9ba5a"/><path d="m151.439 215.588c-7.938 0-16.297-1.154-25.039-3.998-3.141-.043-16.535-.426-27.883-3.762-4.508 2.713-12.84 4.873-22.129-.512-6.91 1.764-31.938 7-47.766-4.869-1.008-.756-1.602-1.941-1.602-3.201v-2.496c0-5.146 3.227-9.846 8.031-11.691l48.812-18.775c.461-.176.945-.266 1.438-.266h7.383c7.098-3.52 50.781-22.68 105.91 8.074 6.727-1.639 31.883-6.666 47.773 5.25 15.012 11.262 22.668 11.727 22.742 11.73 2.02.09 3.699 1.676 3.855 3.691.152 2.018-1.18 3.832-3.16 4.229-.906.188-22.43 4.344-40.152-4.52-4.801-2.398-14.172 1.805-25.027 6.67-14.213 6.374-32.217 14.446-53.186 14.446zm-53.609-16.166c.426 0 .852.066 1.266.205 11.742 3.914 27.801 3.969 27.961 3.969.43 0 .859.07 1.266.205 29.145 9.719 53.484-1.191 73.031-9.957 13.234-5.934 23.684-10.625 31.879-6.527 5.574 2.789 11.734 4.055 17.312 4.535-2.699-1.637-5.691-3.645-8.973-6.109-14.891-11.164-42.164-3.604-42.441-3.525-1.027.291-2.148.154-3.078-.375-55.672-31.812-100.047-8.547-100.488-8.309-.586.314-1.246.484-1.91.484h-7.609l-48.121 18.51c-1.738.666-2.902 2.363-2.902 4.223v.395c15.188 9.547 40.59 2.104 40.852 2.023 1.152-.344 2.379-.156 3.367.504 9.375 6.242 15.922.773 15.98.717.737-.634 1.663-.968 2.608-.968z" fill="#4c241d"/><path d="m102.004 186.719 8.351 16.702s-4.175 12.526 8.351 25.053l20.877 12.526-16.702-29.228s8.351-4.175 8.351-12.526" fill="#a9ba5a"/><path d="m139.584 245c-.707 0-1.418-.188-2.059-.57l-20.879-12.525c-.281-.168-.539-.369-.77-.602-11.426-11.426-10.59-23.057-9.75-27.395l-7.699-15.4c-.988-1.977-.188-4.379 1.789-5.367 1.977-.984 4.383-.184 5.367 1.789l8.348 16.703c.473.949.551 2.049.215 3.055-.117.383-3.035 10.254 7.051 20.617l7.32 4.393-9.109-15.941c-.547-.955-.676-2.092-.355-3.143.316-1.053 1.055-1.928 2.039-2.42.039-.02 6.141-3.234 6.141-8.947 0-2.209 1.789-4 4-4s4 1.791 4 4c0 6.697-3.973 11.236-7.047 13.746l14.871 26.023c.902 1.58.625 3.57-.676 4.842-.766.751-1.778 1.142-2.797 1.142z" fill="#4c241d"/><path d="m164.635 182.544s0 12.526 12.526 20.877v8.351s16.702 12.526 29.228 12.526l-16.568-19.653s-4.309-9.575-.133-13.75" fill="#a9ba5a"/><path d="m206.389 228.299c-13.699 0-30.902-12.783-31.625-13.328-1.008-.754-1.602-1.939-1.602-3.199v-6.287c-12.379-9.383-12.527-22.369-12.527-22.941 0-2.209 1.789-4 4-4 2.199 0 3.988 1.777 4 3.975.008.469.293 10.607 10.746 17.576 1.113.742 1.781 1.99 1.781 3.328v6.297c3.27 2.26 8.766 5.631 14.414 7.959l-8.812-10.455c-.238-.283-.438-.6-.59-.938-.555-1.236-5.27-12.264.688-18.219 1.562-1.562 4.094-1.562 5.656 0s1.562 4.094 0 5.656c-1.305 1.305-.473 5.82.746 8.797l16.184 19.201c1.004 1.189 1.223 2.854.57 4.264-.657 1.411-2.075 2.314-3.629 2.314zm-37.754-45.756h.039z" fill="#4c241d"/><circle cx="83.021" cy="185" fill="#4c241d" r="2.874"/></svg>